 <svg  version="1.0" xmlns="http://www.w3.org/2000/svg"  width="300.000000pt" height="300.000000pt" viewBox="0 0 300.000000 300.000000"  preserveAspectRatio="xMidYMid meet">  <g transform="translate(0.000000,300.000000) scale(0.100000,-0.100000)" fill="#2d7cb9" stroke="none"> <path d="M1551 2633 c-17 -11 -22 -23 -19 -44 l5 -29 -339 0 c-215 0 -346 -4 -359 -10 -23 -13 -25 -53 -3 -74 13 -14 60 -16 358 -16 l343 0 -5 -25 c-5 -31 13 -55 43 -55 12 0 52 23 89 51 87 68 89 88 9 151 -84 65 -96 70 -122 51z"/> <path d="M1008 2268 c-93 -71 -92 -88 3 -162 39 -31 77 -56 84 -56 26 0 47 32 41 62 l-5 28 228 0 c215 0 229 1 246 20 15 17 16 24 7 45 l-12 25 -235 0 -234 0 5 30 c8 35 -9 60 -40 60 -11 0 -51 -24 -88 -52z"/> <path d="M2119 2280 c-10 -6 -25 -32 -34 -58 -17 -47 -21 -50 -90 -79 -71 -29 -72 -29 -111 -12 -69 31 -83 26 -160 -53 -39 -40 -74 -80 -77 -89 -3 -9 5 -39 18 -66 20 -44 21 -53 9 -74 -7 -13 -20 -45 -29 -70 -14 -41 -20 -47 -65 -63 -28 -10 -55 -26 -60 -36 -15 -28 -13 -213 3 -232 6 -8 33 -23 58 -33 43 -15 48 -21 73 -81 31 -77 31 -80 7 -135 -25 -54 -17 -70 72 -156 71 -69 87 -74 149 -42 l40 21 57 -25 c31 -14 62 -27 70 -29 7 -2 23 -28 35 -58 l22 -55 121 -3 c134 -3 130 -5 158 71 10 26 23 47 29 47 6 0 37 11 69 24 l59 25 45 -20 c24 -10 52 -19 62 -19 22 0 171 150 171 173 0 10 -9 36 -20 58 l-21 40 28 73 c27 71 30 74 75 91 26 9 52 23 58 30 7 8 10 55 8 126 l-3 114 -55 27 c-51 25 -56 30 -82 95 l-28 68 20 47 c11 26 20 53 20 60 0 7 -35 48 -78 91 -85 84 -99 89 -162 57 l-38 -20 -59 26 c-86 37 -85 37 -100 79 -24 70 -34 75 -147 75 -56 0 -108 -5 -117 -10z m193 -140 c19 -45 25 -51 72 -66 28 -9 73 -28 100 -41 l49 -25 50 21 51 21 42 -41 42 -41 -19 -42 c-20 -44 -24 -82 -10 -90 7 -5 27 -51 63 -148 7 -19 23 -31 59 -44 l49 -18 0 -58 0 -58 -53 -24 c-47 -21 -54 -28 -66 -67 -7 -24 -24 -66 -37 -92 -29 -59 -29 -63 -5 -120 l19 -45 -41 -40 -42 -41 -44 19 c-53 24 -70 25 -100 4 -13 -10 -53 -27 -89 -39 -69 -23 -72 -26 -96 -88 -15 -37 -15 -37 -73 -37 l-58 0 -25 52 c-19 40 -32 54 -55 61 -16 5 -61 23 -98 40 l-68 30 -49 -20 -48 -21 -41 42 -41 42 20 51 21 50 -29 59 c-16 32 -35 76 -41 96 -14 42 -23 51 -73 69 l-38 13 0 61 0 61 49 21 c44 19 50 25 66 74 10 30 28 75 42 102 l23 47 -21 50 -21 49 39 42 40 41 52 -22 52 -23 54 27 c29 15 73 33 97 40 38 11 46 19 67 64 l25 52 58 0 59 0 21 -50z"/> <path d="M2145 1921 c-97 -26 -206 -117 -248 -209 -18 -38 -22 -65 -22 -147 0 -95 2 -103 34 -163 107 -198 347 -260 528 -136 237 162 202 518 -63 636 -53 23 -175 34 -229 19z m213 -117 c89 -43 140 -130 141 -239 1 -78 -31 -147 -92 -201 -129 -114 -336 -75 -413 77 -62 124 -30 260 81 345 77 59 186 66 283 18z"/> <path d="M577 2119 c-68 -11 -129 -43 -177 -95 -64 -69 -85 -124 -85 -219 0 -93 21 -148 80 -214 21 -23 36 -43 34 -44 -2 -1 -35 -18 -74 -37 -91 -45 -198 -150 -243 -240 -54 -107 -77 -221 -50 -248 9 -9 149 -12 569 -12 495 0 558 2 570 16 21 25 -3 135 -52 233 -53 107 -145 202 -245 252 -38 19 -71 35 -73 36 -2 1 11 19 29 40 18 20 45 62 59 93 34 72 35 180 3 252 -59 132 -201 209 -345 187z m124 -100 c171 -52 203 -298 52 -398 -151 -100 -350 9 -347 188 2 153 145 255 295 210z m15 -540 c147 -26 285 -131 349 -264 19 -38 37 -80 40 -92 l6 -23 -481 0 -482 0 6 28 c26 111 132 241 244 300 102 54 207 71 318 51z"/> <path d="M1427 932 c-20 -22 -22 -48 -4 -59 6 -4 -95 -10 -227 -13 -225 -5 -239 -6 -251 -25 -9 -13 -10 -28 -4 -42 8 -23 9 -23 248 -23 l241 0 -11 -24 c-15 -32 4 -66 35 -66 28 0 153 94 162 122 7 24 -12 47 -90 105 -65 48 -76 51 -99 25z"/> <path d="M895 574 c-33 -26 -63 -52 -67 -58 -21 -30 -6 -54 67 -109 62 -46 80 -55 98 -48 17 7 22 16 22 45 l0 36 338 0 c214 0 345 4 358 10 12 7 19 21 19 40 0 19 -7 33 -19 40 -13 6 -144 10 -358 10 l-338 0 0 37 c0 35 -2 38 -30 41 -23 2 -44 -8 -90 -44z"/> </g> </svg> 