 <svg  version="1.0" xmlns="http://www.w3.org/2000/svg"  width="300.000000pt" height="300.000000pt" viewBox="0 0 300.000000 300.000000"  preserveAspectRatio="xMidYMid meet">  <g transform="translate(0.000000,300.000000) scale(0.100000,-0.100000)" fill="#2191ca" stroke="none"> <path d="M2534 2100 c-45 -9 -66 -17 -814 -315 -1019 -405 -1153 -458 -1164 -458 -6 0 -127 50 -269 111 -142 62 -262 112 -268 112 -5 0 -12 -7 -16 -16 -4 -11 47 -69 180 -202 199 -200 211 -219 174 -272 -9 -13 -17 -32 -17 -40 0 -24 42 -60 69 -60 13 0 41 -16 62 -35 28 -25 48 -35 72 -35 18 0 96 25 172 54 77 30 313 123 524 206 211 82 386 148 388 146 2 -2 -53 -65 -122 -140 -85 -93 -125 -144 -125 -159 0 -29 39 -67 68 -67 14 0 193 128 465 333 l442 332 190 74 c280 109 391 170 437 239 36 54 13 116 -57 151 -87 44 -277 63 -391 41z"/> <path d="M1700 1904 c-118 -13 -305 -33 -415 -45 -110 -11 -206 -26 -212 -31 -7 -6 -13 -30 -13 -54 0 -33 5 -46 19 -54 11 -5 79 -14 151 -19 l132 -10 292 116 c160 63 293 117 295 119 6 6 -15 4 -249 -22z"/> </g> </svg> 