 <svg  version="1.0" xmlns="http://www.w3.org/2000/svg"  width="200.000000pt" height="200.000000pt" viewBox="0 0 200.000000 200.000000"  preserveAspectRatio="xMidYMid meet">  <g transform="translate(0.000000,200.000000) scale(0.100000,-0.100000)" fill="#208ec5" stroke="none"> <path d="M4 1735 c-10 -25 4 -45 29 -45 21 0 25 -6 31 -38 3 -22 16 -48 32 -63 23 -21 36 -24 119 -27 l93 -4 6 -37 c6 -41 26 -64 69 -80 38 -15 38 -56 0 -66 -15 -3 -31 -12 -35 -18 -4 -7 -8 -51 -8 -99 l0 -87 -48 -36 c-26 -20 -52 -46 -59 -58 -9 -15 -12 -87 -13 -234 l0 -211 -30 -6 c-16 -3 -44 -9 -61 -12 -42 -8 -104 -71 -119 -121 -20 -66 -6 -127 42 -179 24 -26 55 -48 77 -54 49 -14 1693 -14 1742 0 22 6 53 28 77 54 48 52 62 113 42 179 -15 50 -77 113 -119 121 -17 3 -45 9 -61 12 l-30 6 0 211 c-1 147 -4 219 -13 234 -7 12 -33 38 -59 58 l-48 36 0 87 c0 48 -4 92 -8 99 -4 6 -20 15 -35 18 -41 11 -37 50 7 69 35 15 66 59 66 95 0 17 9 19 94 23 84 3 97 6 120 27 15 15 29 41 32 62 5 32 11 38 33 41 20 2 26 8 26 28 l0 25 -993 3 c-876 2 -993 0 -998 -13z m1866 -75 l0 -30 -870 0 -870 0 0 30 0 30 870 0 870 0 0 -30z m-1372 -127 c-3 -27 -5 -28 -58 -28 -53 0 -55 1 -58 28 -3 27 -3 27 58 27 61 0 61 0 58 -27z m377 0 c11 -51 30 -78 63 -88 26 -7 32 -14 32 -36 0 -22 -6 -29 -30 -34 l-30 -7 0 -94 c0 -90 -1 -95 -27 -117 -15 -12 -45 -38 -65 -58 l-38 -37 0 -216 0 -216 -60 0 -60 0 0 200 c0 234 -4 249 -79 304 l-51 38 0 95 0 95 -30 11 c-23 9 -30 17 -30 39 0 19 5 28 16 28 28 0 74 56 74 89 l0 31 155 0 155 0 5 -27z m183 0 c-3 -27 -5 -28 -58 -28 -53 0 -55 1 -58 28 -3 27 -3 27 58 27 61 0 61 0 58 -27z m382 -6 c0 -36 43 -87 73 -87 12 0 17 -8 17 -28 0 -22 -7 -30 -30 -39 l-30 -11 0 -89 c0 -97 -3 -104 -64 -149 -61 -45 -66 -67 -66 -294 l0 -200 -60 0 -60 0 0 216 0 216 -38 37 c-20 20 -50 46 -65 58 -26 22 -27 27 -27 117 l0 94 -30 7 c-24 5 -30 12 -30 34 0 22 6 29 32 36 33 10 52 37 63 88 l5 27 155 0 155 0 0 -33z m178 6 c-3 -27 -5 -28 -58 -28 -53 0 -55 1 -58 28 -3 27 -3 27 58 27 61 0 61 0 58 -27z m-1148 -295 c1 -86 10 -105 73 -153 l47 -36 0 -209 0 -210 -155 0 -155 0 0 203 c0 111 4 207 8 212 4 6 27 26 51 45 53 41 71 81 71 160 l0 60 30 0 30 0 0 -72z m560 -5 l0 -77 65 -61 65 -60 0 -203 0 -202 -160 0 -160 0 0 202 0 203 65 60 65 61 0 77 0 77 30 0 30 0 0 -77z m562 -4 c4 -88 0 -82 101 -166 l27 -23 0 -205 0 -205 -155 0 -155 0 0 210 0 209 48 36 c62 48 71 67 72 153 l0 72 29 0 29 0 4 -81z m308 -706 c58 -65 44 -155 -30 -195 -33 -17 -78 -18 -870 -18 -792 0 -837 1 -870 18 -45 24 -74 81 -66 126 8 40 40 84 70 96 11 5 407 8 879 7 l859 -2 28 -32z"/> <path d="M317 863 c-10 -9 -8 -175 1 -191 6 -9 38 -12 123 -10 l114 3 3 68 c3 62 1 69 -25 93 -25 24 -33 26 -85 20 -43 -4 -61 -2 -72 9 -15 16 -48 20 -59 8z m181 -110 l3 -33 -60 0 c-61 0 -61 0 -61 30 0 20 4 28 13 24 7 -2 24 0 38 5 43 18 64 9 67 -26z"/> <path d="M880 921 c-11 -21 -14 -201 -4 -238 6 -22 11 -23 120 -23 137 0 138 1 132 122 -3 74 -5 82 -33 105 -26 23 -35 25 -86 20 -48 -6 -59 -4 -74 13 -23 25 -41 25 -55 1z m178 -138 l3 -63 -61 0 -60 0 0 59 0 60 38 4 c77 8 77 8 80 -60z"/> <path d="M1444 1017 c-2 -7 -3 -89 -2 -182 l3 -170 114 -3 c85 -2 117 1 123 10 4 7 8 73 8 146 0 127 -1 134 -24 157 -31 31 -68 40 -108 26 -27 -10 -34 -8 -53 9 -24 23 -53 26 -61 7z m176 -188 l0 -109 -60 0 -60 0 0 105 0 105 28 1 c15 0 36 4 47 8 40 16 45 4 45 -110z"/> <path d="M175 518 c-32 -17 -45 -39 -45 -78 0 -69 54 -110 116 -90 69 23 86 99 35 151 -31 31 -70 37 -106 17z m65 -63 c17 -20 5 -45 -20 -45 -23 0 -35 22 -26 45 7 19 30 19 46 0z"/> <path d="M565 508 c-15 -14 -28 -38 -31 -59 -5 -31 -1 -42 24 -70 23 -26 37 -33 67 -33 30 0 44 7 67 33 25 28 29 39 24 70 -7 46 -46 81 -91 81 -21 0 -44 -9 -60 -22z m84 -52 c6 -7 9 -21 5 -30 -8 -21 -50 -21 -58 0 -7 19 10 44 29 44 7 0 18 -6 24 -14z"/> <path d="M941 504 c-53 -44 -40 -123 25 -150 95 -40 172 84 93 150 -17 15 -43 26 -59 26 -16 0 -42 -11 -59 -26z m77 -43 c23 -14 10 -46 -18 -46 -16 0 -26 6 -28 19 -3 16 12 36 28 36 3 0 11 -4 18 -9z"/> <path d="M1315 508 c-15 -14 -28 -38 -31 -59 -5 -31 -1 -42 24 -70 23 -26 37 -33 67 -33 30 0 44 7 67 33 25 28 29 39 24 70 -7 46 -46 81 -91 81 -21 0 -44 -9 -60 -22z m84 -52 c16 -20 3 -46 -24 -46 -13 0 -26 7 -29 16 -7 19 10 44 29 44 7 0 18 -6 24 -14z"/> <path d="M1719 501 c-51 -52 -34 -128 35 -151 61 -20 116 21 116 86 0 46 -9 63 -41 79 -43 23 -77 18 -110 -14z m86 -61 c0 -18 -6 -26 -23 -28 -27 -4 -40 22 -22 44 19 22 45 13 45 -16z"/> </g> </svg> 