<?xml version="1.0" standalone="no"?>
<!DOCTYPE svg PUBLIC "-//W3C//DTD SVG 20010904//EN"
 "http://www.w3.org/TR/2001/REC-SVG-20010904/DTD/svg10.dtd">
<svg version="1.0" xmlns="http://www.w3.org/2000/svg"
 width="300.000000pt" height="300.000000pt" viewBox="0 0 300.000000 300.000000"
 preserveAspectRatio="xMidYMid meet">
<metadata>
Created by potrace 1.10, written by Peter Selinger 2001-2011
</metadata>
<g transform="translate(0.000000,300.000000) scale(0.100000,-0.100000)"
fill="#168bc5" stroke="none">
<path d="M1302 2908 c-32 -32 3 -83 50 -74 l28 6 0 -140 0 -140 -28 0 c-50 0
-61 -24 -64 -144 l-3 -107 -135 0 -135 0 1 138 c1 119 4 145 23 187 29 68 63
110 116 146 48 33 59 66 30 90 -41 34 -184 -92 -227 -199 -19 -47 -23 -80 -26
-211 l-4 -155 -132 0 c-226 0 -216 19 -216 -427 l0 -343 -184 0 c-181 0 -185
0 -210 -24 -22 -20 -26 -33 -26 -78 0 -29 -4 -53 -9 -53 -5 0 -28 7 -51 15
-52 18 -78 12 -91 -22 -12 -32 -2 -44 15 -20 15 20 34 21 89 5 37 -11 41 -10
58 11 12 14 19 39 19 65 0 23 5 47 12 54 8 8 66 12 194 12 178 0 183 1 198 22
14 19 16 71 16 361 l0 338 25 24 c23 24 29 25 158 25 113 0 137 3 148 16 10
12 16 63 20 178 5 148 7 165 32 212 14 28 38 65 53 83 37 44 111 94 119 80 4
-6 -3 -18 -16 -26 -13 -9 -45 -38 -70 -64 -70 -73 -88 -133 -91 -302 -3 -184
-10 -177 166 -177 169 0 166 -2 166 147 l0 102 39 11 c21 5 42 17 45 26 3 9 6
76 6 149 0 127 -1 135 -22 149 -12 9 -33 16 -46 16 -13 0 -20 4 -17 10 9 15
237 13 258 -3 16 -11 17 -31 15 -187 l-3 -175 -110 -5 c-60 -3 -116 -9 -122
-13 -9 -6 -13 -39 -13 -107 0 -88 2 -100 19 -110 11 -5 85 -10 168 -10 136 0
151 -2 171 -20 14 -14 22 -33 22 -55 0 -53 23 -68 92 -61 l58 7 0 -272 0 -272
-56 7 c-46 5 -61 3 -75 -10 -23 -21 -24 -42 -3 -72 15 -22 22 -23 142 -22 183
1 192 1 192 -10 0 -6 -59 -10 -158 -10 -141 0 -161 -2 -175 -18 -15 -16 -17
-50 -17 -274 0 -234 1 -256 18 -271 17 -15 67 -17 514 -17 470 0 496 1 512 19
15 16 16 47 16 272 -1 217 -4 256 -17 271 -15 16 -40 18 -270 18 -162 0 -253
4 -253 10 0 15 533 13 548 -2 7 -7 12 -32 12 -57 0 -32 6 -51 21 -67 20 -22
24 -22 57 -9 44 19 61 19 84 -2 23 -21 31 -13 19 20 -13 34 -42 41 -86 22 -60
-24 -65 -21 -65 38 0 45 -4 58 -26 78 -26 24 -26 24 -283 27 -276 3 -311 -1
-311 -41 0 -46 9 -47 282 -47 l258 0 0 -260 0 -260 -500 0 -500 0 0 260 0 260
163 0 c89 0 167 4 173 8 19 13 23 40 9 59 -12 16 -30 18 -179 18 -165 0 -166
0 -166 22 0 21 3 22 64 16 97 -9 96 -13 96 294 0 165 -4 261 -11 277 -14 29
-39 37 -82 25 -56 -16 -67 -12 -67 24 0 51 -32 94 -80 107 -22 6 -100 10 -173
9 l-132 -1 -3 86 -3 86 114 0 c155 0 147 -12 147 218 0 235 11 222 -178 222
-94 0 -142 -4 -150 -12z"/>
<path d="M1460 2850 c-18 -18 -20 -33 -20 -153 0 -151 7 -167 71 -167 56 0 59
9 59 166 0 136 -1 144 -22 158 -31 22 -64 20 -88 -4z m80 -24 c0 -3 0 -64 0
-136 l0 -130 -35 0 -35 0 0 138 0 139 35 -2 c19 -1 35 -5 35 -9z"/>
<path d="M660 2229 l-25 -21 0 -433 c0 -416 1 -434 20 -455 16 -17 29 -21 70
-19 27 2 50 -1 50 -6 0 -6 -23 -11 -51 -13 -94 -5 -89 23 -89 -497 0 -431 1
-454 19 -474 19 -21 24 -21 517 -21 422 0 500 2 512 15 11 11 16 63 22 242 8
264 -2 702 -17 721 -8 9 -94 12 -369 12 -233 0 -359 4 -359 10 0 6 124 10 353
10 347 0 354 0 373 21 18 20 19 42 19 454 0 410 -1 434 -19 454 -19 21 -25 21
-510 21 -481 -1 -491 -1 -516 -21z m1010 -16 c0 -5 1 -203 3 -441 l2 -432
-353 0 c-224 0 -360 -4 -373 -10 -21 -12 -25 -50 -7 -68 9 -9 105 -12 372 -12
l361 0 -2 -462 -2 -463 -501 -3 -500 -2 0 465 0 465 58 0 c63 0 82 11 82 47 0
29 -32 43 -96 43 l-44 0 0 433 c0 239 3 437 7 440 9 10 993 9 993 0z"/>
<path d="M1212 2093 c-6 -10 -6 -28 -1 -40 8 -23 11 -23 181 -23 95 0 178 4
184 8 17 11 22 35 12 55 -8 15 -27 17 -188 17 -161 0 -180 -2 -188 -17z m348
-23 c0 -6 -60 -10 -160 -10 -100 0 -160 4 -160 10 0 6 60 10 160 10 100 0 160
-4 160 -10z"/>
<path d="M1069 917 c-91 -60 -90 -194 1 -255 29 -20 45 -23 90 -20 92 6 142
60 142 150 0 117 -136 190 -233 125z m135 -21 c47 -19 66 -51 66 -109 0 -43
-5 -54 -35 -84 -34 -34 -38 -35 -92 -31 -48 4 -61 10 -85 37 -22 25 -28 41
-28 79 0 56 19 88 64 108 40 17 69 17 110 0z"/>
<path d="M1094 856 c-45 -45 -47 -95 -5 -137 37 -37 79 -38 120 -3 25 21 31
33 31 66 0 50 -13 74 -50 93 -42 22 -58 19 -96 -19z m109 -24 c45 -40 -13
-127 -70 -106 -16 5 -34 22 -41 36 -11 23 -10 32 2 57 23 43 68 49 109 13z"/>
<path d="M1780 2103 c-49 -18 -50 -25 -50 -233 0 -192 0 -197 23 -218 13 -12
36 -22 52 -22 51 0 54 16 55 241 0 187 -2 207 -18 222 -19 17 -35 20 -62 10z
m50 -233 c0 -222 1 -217 -47 -204 -23 6 -23 7 -23 204 0 218 -5 202 58 209 9
1 12 -47 12 -209z"/>
<path d="M227 1462 c-15 -16 -17 -50 -17 -274 0 -234 1 -256 18 -271 16 -14
44 -17 184 -17 147 0 167 2 181 18 15 16 17 50 17 274 0 234 -1 256 -18 271
-16 14 -44 17 -184 17 -147 0 -167 -2 -181 -18z m353 -272 l0 -260 -170 0
-170 0 0 260 0 260 170 0 170 0 0 -260z"/>
<path d="M334 1346 c-3 -8 -4 -25 -2 -38 2 -18 9 -23 32 -23 36 0 56 27 40 53
-14 22 -62 28 -70 8z m46 -26 c0 -5 -4 -10 -10 -10 -5 0 -10 5 -10 10 0 6 5
10 10 10 6 0 10 -4 10 -10z"/>
<path d="M2250 1341 c-16 -31 4 -63 37 -59 34 4 52 32 37 56 -16 26 -60 28
-74 3z"/>
<path d="M2422 1348 c-27 -27 -6 -68 35 -68 29 0 48 33 33 60 -12 22 -49 27
-68 8z m38 -28 c0 -5 -5 -10 -11 -10 -5 0 -7 5 -4 10 3 6 8 10 11 10 2 0 4 -4
4 -10z"/>
<path d="M2582 1348 c-28 -28 -3 -72 39 -66 30 4 47 33 33 56 -14 21 -55 27
-72 10z m38 -28 c0 -5 -5 -10 -11 -10 -5 0 -7 5 -4 10 3 6 8 10 11 10 2 0 4
-4 4 -10z"/>
<path d="M73 1318 c-16 -18 -18 -48 -18 -434 0 -368 2 -415 17 -430 22 -22 72
-10 98 23 19 25 20 40 20 413 0 430 2 416 -67 438 -27 9 -34 7 -50 -10z m87
-429 l0 -397 -31 -11 c-18 -6 -35 -11 -38 -11 -4 0 -5 780 -1 837 0 0 16 -4
35 -10 l35 -10 0 -398z"/>
<path d="M2870 1323 c-8 -3 -25 -15 -37 -26 l-22 -20 -1 -394 c0 -377 1 -394
20 -413 25 -25 68 -36 89 -23 13 8 17 40 24 164 10 195 -1 689 -15 706 -11 13
-32 15 -58 6z m43 -437 c1 -315 -1 -416 -10 -416 -6 0 -23 4 -37 10 l-26 10 0
395 0 395 33 14 c17 7 33 12 35 11 1 -1 3 -190 5 -419z"/>
<path d="M260 873 c-8 -3 -23 -12 -32 -21 -16 -14 -18 -40 -18 -267 0 -232 2
-254 19 -273 13 -16 30 -22 60 -22 48 0 50 -5 16 -32 -19 -15 -25 -29 -25 -57
0 -77 -104 -71 1218 -71 l1181 0 15 22 c22 30 20 81 -2 101 -17 16 -108 17
-1100 17 -715 0 -1082 3 -1082 10 0 6 15 10 34 10 63 0 66 12 66 295 0 201 -3
255 -14 271 -13 17 -28 19 -168 21 -84 0 -160 -1 -168 -4z m320 -288 l0 -265
-38 2 c-22 0 -44 -2 -50 -6 -16 -9 -15 -49 0 -64 9 -9 267 -12 1100 -12 l1088
0 0 -37 0 -38 -1185 0 -1185 0 0 38 c0 30 4 37 20 37 12 0 25 10 32 25 17 38
-4 55 -68 55 l-54 0 0 260 0 260 168 3 c92 1 168 4 170 5 1 1 2 -117 2 -263z"/>
<path d="M1780 873 c-50 -19 -50 -20 -50 -287 0 -210 3 -255 15 -273 l16 -22
499 -1 499 0 15 22 c14 19 16 62 16 274 0 242 -1 252 -21 270 -20 18 -44 19
-498 21 -262 1 -483 -1 -491 -4z m980 -293 l0 -260 -500 0 -500 0 0 260 0 260
500 0 500 0 0 -260z"/>
<path d="M0 429 c0 -27 31 -59 56 -59 14 0 41 7 61 15 19 8 37 15 39 15 2 0 4
-27 4 -60 0 -54 2 -61 30 -82 24 -17 30 -29 30 -57 l0 -36 -89 3 c-79 4 -91 2
-110 -17 -15 -15 -18 -26 -12 -43 l8 -23 1481 -3 c1473 -2 1481 -2 1492 18 14
26 -2 58 -34 66 -13 3 -60 4 -105 2 l-81 -3 0 35 c1 28 7 39 33 55 30 19 32
25 35 83 2 34 4 62 6 62 2 0 20 -7 39 -15 51 -21 83 -19 101 7 26 37 20 55 -8
29 -23 -22 -27 -23 -75 -10 -46 11 -52 11 -71 -6 -15 -13 -20 -31 -20 -66 0
-37 -4 -51 -19 -59 -37 -19 -51 -41 -51 -79 0 -61 20 -71 134 -71 62 0 95 -4
91 -10 -4 -7 -505 -10 -1471 -10 -969 0 -1464 3 -1464 10 0 12 1 12 103 10 95
-2 117 12 117 72 0 32 -6 45 -30 66 -25 22 -30 34 -30 72 0 32 -6 53 -20 67
-19 21 -21 21 -70 5 -49 -16 -50 -15 -75 8 -18 17 -25 19 -25 9z"/>
</g>
</svg>
