<?xml version="1.0" standalone="no"?>
<!DOCTYPE svg PUBLIC "-//W3C//DTD SVG 20010904//EN"
 "http://www.w3.org/TR/2001/REC-SVG-20010904/DTD/svg10.dtd">
<svg version="1.0" xmlns="http://www.w3.org/2000/svg"
 width="300.000000pt" height="300.000000pt" viewBox="0 0 300.000000 300.000000"
 preserveAspectRatio="xMidYMid meet">
<metadata>
Created by potrace 1.10, written by Peter Selinger 2001-2011
</metadata>
<g transform="translate(0.000000,300.000000) scale(0.100000,-0.100000)"
fill=" #1e81b0" stroke="none">
<path d="M2241 2351 c-12 -23 -32 -43 -50 -50 -43 -19 -45 -37 -6 -61 19 -12
44 -37 55 -56 12 -18 26 -34 31 -34 5 0 20 17 33 38 13 22 38 45 55 52 41 17
39 35 -7 59 -23 12 -44 33 -55 55 -9 20 -21 36 -27 36 -5 0 -18 -17 -29 -39z
m54 -106 l-25 -24 -25 25 c-28 28 -30 34 -12 34 7 0 18 9 24 20 12 19 13 19
38 -6 l26 -26 -26 -23z"/>
<path d="M1760 2313 c-8 -3 -21 -11 -28 -16 -8 -6 -31 -10 -51 -8 -40 2 -85
-25 -96 -58 -4 -12 -19 -20 -48 -24 -23 -4 -81 -19 -129 -35 -83 -28 -87 -28
-92 -10 -4 19 -14 20 -213 16 l-209 -3 -77 -38 c-61 -30 -91 -53 -144 -113
-87 -95 -88 -109 -8 -109 l59 0 13 -73 12 -73 -40 -65 -39 -64 0 -480 0 -479
24 -28 24 -28 289 -5 c314 -5 334 -3 360 50 9 18 13 105 13 323 0 258 -2 304
-17 334 -12 26 -46 55 -134 114 -121 81 -135 97 -130 155 2 22 -10 52 -40 100
-36 60 -42 76 -40 119 1 27 4 51 5 53 10 9 66 -17 137 -64 62 -42 84 -52 94
-44 11 9 11 19 0 56 -16 54 -34 83 -88 141 -51 56 -43 65 64 71 69 4 82 8 86
23 3 11 8 19 11 19 3 0 47 -13 99 -30 51 -16 104 -30 117 -30 14 0 30 -10 39
-24 23 -35 78 -51 123 -36 30 10 38 10 55 -6 14 -12 35 -18 62 -18 33 1 47 8
69 33 15 17 28 42 28 56 0 14 6 25 14 25 7 0 25 12 40 26 54 55 23 152 -55
169 -16 4 -29 12 -29 19 0 36 -88 76 -130 59z m75 -58 c14 -13 25 -33 25 -44
0 -15 7 -19 36 -18 42 1 64 -21 64 -64 0 -30 -16 -47 -56 -58 -23 -6 -28 -13
-28 -40 -1 -47 -41 -77 -79 -60 -15 7 -27 15 -27 19 0 3 -6 14 -13 24 -12 16
-14 16 -40 -8 -44 -41 -90 -30 -110 25 -3 11 -21 18 -54 21 -51 5 -203 48
-203 57 0 11 205 62 234 59 26 -3 30 1 37 31 9 43 25 53 75 47 33 -4 45 -1 59
14 24 27 51 25 80 -5z m-665 -153 c0 -36 -2 -40 -39 -50 -44 -14 -105 -75
-128 -131 -9 -20 -18 -58 -22 -86 l-6 -50 -95 0 -95 0 -7 50 c-17 120 -14 115
-63 115 -25 0 -45 3 -45 8 0 16 92 102 137 129 68 40 124 52 251 52 l112 1 0
-38z m110 3 c0 -34 -1 -35 -38 -35 -38 0 -38 0 -34 35 4 32 7 35 38 35 32 0
34 -2 34 -35z m-142 -172 c74 -91 94 -136 39 -93 -14 11 -50 33 -81 48 l-56
28 23 32 c12 17 25 32 29 32 3 0 24 -21 46 -47z m-122 -240 l25 -43 -155 0
c-86 0 -156 2 -156 5 0 3 11 23 25 46 l26 40 105 -3 104 -3 26 -42z m37 -107
c-10 -48 32 -97 148 -175 63 -43 116 -86 125 -102 22 -43 21 -595 -2 -627 -15
-22 -17 -22 -296 -22 -248 0 -284 2 -300 17 -17 15 -18 43 -18 475 l0 458 174
0 173 0 -4 -24z"/>
<path d="M777 1564 c-19 -20 -5 -34 34 -34 33 0 40 3 37 18 -3 17 -57 30 -71
16z"/>
<path d="M917 1563 c-18 -17 -5 -33 26 -33 28 0 35 -5 45 -32 16 -41 56 -88
77 -88 20 0 20 36 0 44 -9 3 -27 31 -40 61 -24 53 -26 55 -63 55 -21 0 -42 -3
-45 -7z"/>
<path d="M815 1245 l-25 -24 0 -225 0 -225 26 -20 c25 -20 40 -21 211 -21 182
0 184 0 208 25 l25 24 0 220 0 219 -31 26 c-30 26 -31 26 -210 26 -178 0 -180
0 -204 -25z m393 -27 c17 -17 17 -419 0 -436 -19 -19 -352 -17 -368 3 -18 22
-21 400 -2 426 12 17 27 19 186 19 120 0 176 -4 184 -12z"/>
<path d="M897 1133 c-4 -3 -7 -12 -7 -20 0 -10 19 -13 75 -13 68 0 75 2 75 20
0 18 -7 20 -68 20 -38 0 -72 -3 -75 -7z"/>
<path d="M897 1014 c-4 -4 -7 -13 -7 -21 0 -11 26 -13 133 -11 109 3 132 6
132 18 0 12 -22 15 -126 18 -69 1 -128 -1 -132 -4z"/>
<path d="M895 889 c-15 -23 16 -30 136 -27 102 3 124 6 124 18 0 12 -22 15
-127 18 -85 2 -129 -1 -133 -9z"/>
<path d="M2116 2155 c-15 -25 -30 -45 -34 -45 -4 0 -22 -9 -39 -20 -40 -24
-35 -41 16 -65 27 -12 44 -29 60 -62 12 -24 27 -43 34 -41 6 3 22 22 34 44 13
23 39 49 63 63 44 24 51 46 20 56 -32 10 -76 52 -90 85 -17 41 -34 38 -64 -15z
m71 -61 c28 -28 33 -38 22 -45 -8 -5 -17 -9 -22 -9 -4 0 -13 -11 -19 -25 -14
-31 -24 -32 -32 -2 -3 13 -18 29 -33 36 l-28 13 27 14 c15 8 29 23 33 34 3 11
8 20 11 20 3 0 21 -16 41 -36z"/>
<path d="M2231 1869 c-25 -5 -67 -16 -94 -25 -41 -14 -69 -15 -146 -9 -138 10
-134 10 -267 -5 -108 -12 -126 -12 -170 3 -28 9 -53 12 -58 7 -5 -5 1 -28 14
-55 29 -60 29 -139 1 -260 -43 -179 -46 -220 -26 -322 l18 -93 -26 -37 c-25
-35 -26 -39 -10 -51 44 -32 138 -36 206 -7 12 5 17 3 17 -8 0 -18 79 -89 132
-119 36 -21 38 -23 36 -72 -3 -60 26 -158 53 -182 26 -24 57 -20 194 21 136
41 162 55 171 90 10 41 -33 161 -68 188 l-30 24 15 44 c18 52 36 58 109 34 28
-9 55 -12 59 -8 5 5 -1 29 -13 53 -34 69 -35 146 -2 270 28 107 30 135 21 396
-2 48 2 66 17 83 31 35 15 51 -51 50 -32 -1 -78 -5 -102 -10z m103 -46 c-10
-21 -10 -105 1 -223 6 -74 4 -99 -19 -195 -33 -134 -42 -227 -27 -279 6 -22 9
-41 8 -43 -2 -1 -19 0 -39 3 -35 6 -36 8 -31 40 7 43 -91 379 -120 412 -21 23
-71 30 -82 12 -9 -14 -25 -12 -25 3 0 34 -55 58 -99 43 -17 -6 -26 -4 -32 7
-13 22 -57 30 -88 14 -15 -7 -42 -12 -61 -10 -44 5 -80 -25 -80 -67 0 -23 34
-146 57 -205 3 -9 -10 -11 -45 -7 -30 2 -52 0 -56 -6 -7 -11 1 -40 50 -191 13
-41 22 -76 21 -78 -15 -15 -157 -22 -157 -8 0 1 7 16 16 34 15 30 15 40 -1
127 -19 106 -17 132 22 294 21 85 24 122 21 195 l-5 90 71 2 c39 1 168 4 286
5 146 3 225 8 245 17 37 15 98 28 144 30 28 1 32 -2 25 -16z m-497 -245 c4 -7
27 -73 49 -148 29 -95 46 -136 58 -138 24 -5 20 31 -15 142 -17 54 -28 104
-25 112 3 8 17 14 30 14 23 0 28 -8 56 -102 17 -57 36 -118 41 -135 10 -31 31
-43 43 -24 3 4 -8 50 -24 102 -31 99 -28 123 13 117 17 -3 29 -32 73 -178 30
-96 54 -184 54 -196 0 -11 -11 -57 -25 -101 -14 -45 -24 -86 -23 -93 2 -7 -42
-26 -116 -48 -104 -31 -120 -34 -130 -21 -6 9 -36 32 -67 51 -68 44 -102 78
-116 121 -28 80 -74 239 -71 242 1 2 17 -3 34 -10 25 -10 36 -25 53 -69 12
-31 21 -63 21 -70 0 -23 26 -38 38 -23 8 9 -6 65 -49 207 -33 106 -59 203 -57
214 2 15 10 21 28 21 27 0 23 9 87 -200 12 -40 24 -61 36 -63 24 -5 22 14 -19
144 -29 92 -34 117 -24 129 15 18 36 19 47 3z m384 -749 c18 -60 19 -73 8 -84
-16 -16 -241 -85 -275 -85 -20 0 -26 9 -44 71 -16 53 -19 74 -10 83 14 14 236
84 272 85 25 1 29 -4 49 -70z"/>
<path d="M2074 1267 c-8 -21 13 -57 32 -57 23 0 15 64 -9 68 -9 2 -20 -3 -23
-11z"/>
<path d="M2107 1163 c-4 -3 -7 -16 -7 -28 0 -12 -9 -48 -20 -80 -25 -73 -26
-98 -3 -93 20 4 62 122 62 176 1 30 -15 43 -32 25z"/>
</g>
</svg>
