 <svg  version="1.0" xmlns="http://www.w3.org/2000/svg"  width="300.000000pt" height="300.000000pt" viewBox="0 0 300.000000 300.000000"  preserveAspectRatio="xMidYMid meet">  <g transform="translate(0.000000,300.000000) scale(0.100000,-0.100000)" fill="#237ca9" stroke="none"> <path d="M1562 2980 c-40 -25 -72 -75 -72 -115 0 -16 16 -79 36 -138 35 -104 35 -109 18 -128 -15 -17 -31 -19 -166 -19 -143 0 -151 1 -168 22 -15 20 -30 23 -99 26 -70 4 -81 7 -81 22 0 12 10 21 30 25 91 20 139 132 90 212 -39 64 -28 63 -567 63 -530 0 -507 2 -555 -55 -58 -68 -17 -189 73 -216 l39 -12 0 -1192 0 -1193 -33 -6 c-34 -6 -75 -42 -96 -83 -28 -55 0 -136 61 -173 33 -20 54 -20 1428 -20 1374 0 1395 0 1428 20 87 53 95 157 17 230 l-27 25 -470 3 -471 3 6 142 c8 171 29 300 63 381 90 212 132 355 159 534 22 147 20 184 -12 223 -25 30 -28 41 -28 109 0 68 -3 80 -27 112 -31 40 -104 74 -139 65 -12 -3 -35 1 -50 9 -44 22 -120 18 -161 -9 -49 -34 -135 -41 -185 -16 -45 23 -72 24 -120 4 -52 -22 -70 -41 -89 -94 -10 -25 -33 -63 -51 -84 -18 -20 -33 -43 -33 -50 0 -6 -14 -25 -31 -42 l-32 -29 6 -96 c11 -176 62 -378 148 -582 57 -136 75 -229 85 -438 l7 -140 -232 0 -231 0 0 940 0 940 85 0 c74 0 86 2 95 20 10 19 21 20 164 20 133 0 155 -2 169 -17 9 -11 21 -55 28 -108 6 -49 18 -105 25 -122 36 -91 189 -98 235 -11 6 12 24 65 39 119 23 78 36 106 63 134 105 108 108 278 7 385 l-32 34 37 118 c41 128 41 164 4 212 -38 49 -66 56 -216 56 -120 0 -142 -3 -171 -20z m299 -80 c26 -15 24 -50 -9 -149 l-28 -84 -89 0 -89 0 -28 82 c-15 46 -30 91 -33 101 -4 12 2 27 14 39 19 19 33 21 132 21 61 0 119 -5 130 -10z m-796 -60 c15 -17 16 -24 7 -45 l-12 -25 -474 0 c-470 0 -475 0 -486 21 -9 16 -8 26 5 45 l15 24 464 0 c451 0 463 -1 481 -20z m-125 -590 l0 -420 -355 0 -355 0 0 420 0 420 355 0 355 0 0 -420z m865 311 c130 -60 156 -216 52 -308 -119 -105 -294 -32 -305 127 -3 47 0 66 19 99 48 87 148 122 234 82z m-685 -171 l0 -140 -45 0 -45 0 0 140 0 140 45 0 45 0 0 -140z m338 45 c-6 -29 -6 -61 0 -90 l10 -45 -124 0 -124 0 0 90 0 90 124 0 124 0 -10 -45z m321 -331 c6 -5 -27 -116 -38 -127 -5 -5 -21 -7 -34 -3 -26 6 -29 13 -42 102 l-6 41 58 -5 c32 -2 60 -6 62 -8z m144 -345 c20 -15 35 -18 61 -14 73 14 108 -26 81 -92 -8 -19 -12 -39 -9 -44 3 -5 -21 -9 -53 -9 -77 0 -124 -24 -140 -70 -7 -19 -12 -75 -12 -123 -1 -79 -3 -88 -18 -85 -13 2 -20 16 -23 48 -8 61 -25 89 -65 106 -28 11 -41 12 -71 1 -58 -19 -74 -60 -74 -184 0 -94 -2 -102 -20 -108 -44 -14 -50 6 -50 180 0 160 -1 164 -25 193 -14 17 -40 34 -58 38 -19 4 -26 9 -17 12 32 10 50 36 50 70 0 69 64 96 110 47 27 -29 46 -31 85 -11 19 10 35 12 52 5 35 -13 60 -11 75 7 51 61 77 69 121 33z m-983 -74 l0 -45 -355 0 -355 0 0 45 0 45 355 0 355 0 0 -45z m0 -230 l0 -95 -355 0 -355 0 0 88 c0 49 3 92 7 95 3 4 163 7 355 7 l348 0 0 -95z m500 -5 l0 -50 -44 0 c-41 0 -44 2 -50 31 -13 65 -11 69 44 69 l50 0 0 -50z m690 38 c0 -7 -3 -30 -6 -50 l-7 -38 -83 0 -84 0 0 50 0 50 90 0 c65 0 90 -3 90 -12z m-410 -144 c0 -73 43 -114 119 -114 42 0 86 28 96 60 6 18 15 20 86 20 91 0 89 4 64 -105 -24 -104 -64 -221 -107 -319 -56 -128 -78 -238 -85 -439 l-6 -167 -152 0 -152 0 -6 158 c-9 230 -26 306 -113 512 -34 82 -83 250 -91 313 l-6 47 37 0 36 0 0 -66 c0 -74 17 -112 60 -138 63 -37 158 -7 186 59 9 22 14 69 14 130 0 62 4 94 10 90 6 -3 10 -22 10 -41z m-782 -127 l3 -47 -353 2 -353 3 -3 33 c-6 66 -27 63 355 60 l348 -3 3 -48z m2 -537 l0 -400 -353 2 -352 3 -3 385 c-1 212 0 391 3 397 3 10 83 13 355 13 l350 0 0 -400z m1950 -510 c11 -11 20 -24 20 -30 0 -5 -9 -19 -20 -30 -20 -20 -33 -20 -1390 -20 -1357 0 -1370 0 -1390 20 -11 11 -20 25 -20 30 0 6 9 19 20 30 20 20 33 20 1390 20 1357 0 1370 0 1390 -20z"/> <path d="M505 2567 c-94 -31 -158 -88 -197 -172 -32 -69 -31 -180 1 -247 30 -62 86 -119 147 -149 74 -36 188 -34 267 5 181 88 221 337 79 481 -74 75 -207 111 -297 82z m174 -107 c146 -74 156 -274 18 -363 -84 -55 -195 -40 -261 33 -46 51 -56 77 -56 146 0 83 39 147 115 187 43 23 137 22 184 -3z"/> <path d="M342 968 c-17 -17 -17 -279 0 -296 7 -7 21 -12 33 -12 40 0 45 17 45 160 0 143 -5 160 -45 160 -12 0 -26 -5 -33 -12z"/> <path d="M342 548 c-7 -7 -12 -40 -12 -78 0 -70 10 -90 45 -90 35 0 45 20 45 90 0 70 -10 90 -45 90 -12 0 -26 -5 -33 -12z"/> </g> </svg> 