 <svg  version="1.0" xmlns="http://www.w3.org/2000/svg"  width="300.000000pt" height="300.000000pt" viewBox="0 0 300.000000 300.000000"  preserveAspectRatio="xMidYMid meet">  <g transform="translate(0.000000,300.000000) scale(0.100000,-0.100000)" fill="#218ec4" stroke="none"> <path d="M1472 2988 c-9 -9 -12 -74 -12 -230 0 -211 -1 -218 -20 -218 -18 0 -20 -7 -20 -63 l0 -63 -69 -22 c-214 -69 -351 -260 -351 -489 l0 -73 500 0 500 0 0 73 c0 229 -137 420 -351 489 l-69 22 0 63 c0 56 -2 63 -20 63 -18 0 -20 7 -20 54 l0 55 31 -11 c21 -7 62 -8 123 -3 119 11 244 12 279 2 l27 -7 0 144 0 145 -42 12 c-27 7 -74 9 -123 5 -207 -16 -241 -17 -267 -7 -17 6 -28 18 -28 29 0 22 -19 42 -40 42 -9 0 -21 -5 -28 -12z"/> <path d="M627 1743 c-4 -3 -7 -78 -7 -165 l0 -158 85 0 85 0 0 29 c0 20 6 32 18 35 9 3 169 46 355 96 l337 90 303 -81 c443 -118 407 -105 407 -140 l0 -29 85 0 85 0 -2 163 -3 162 -871 3 c-479 1 -874 -1 -877 -5z"/> <path d="M1190 1501 c-157 -42 -293 -80 -303 -84 -16 -6 -17 -41 -15 -584 l3 -578 125 0 125 0 3 478 2 477 120 0 120 0 2 -477 3 -478 125 0 125 0 3 478 2 477 120 0 120 0 2 -477 3 -478 125 0 125 0 3 578 2 577 -22 9 c-47 18 -596 161 -614 160 -11 0 -147 -35 -304 -78z"/> <path d="M0 665 l0 -665 253 0 252 0 125 125 c69 69 133 125 142 125 17 0 18 31 18 540 l0 540 -395 0 -395 0 0 -665z m330 335 l0 -120 -80 0 -80 0 0 120 0 120 80 0 80 0 0 -120z m290 0 l0 -120 -80 0 -80 0 0 120 0 120 80 0 80 0 0 -120z m-290 -415 l0 -125 -80 0 -80 0 0 125 0 125 80 0 80 0 0 -125z m290 0 l0 -125 -80 0 -80 0 0 125 0 125 80 0 80 0 0 -125z"/> <path d="M2210 790 c0 -509 1 -540 18 -540 9 0 73 -56 142 -125 l125 -125 252 0 253 0 0 665 0 665 -395 0 -395 0 0 -540z m330 210 l0 -120 -80 0 -80 0 0 120 0 120 80 0 80 0 0 -120z m290 0 l0 -120 -80 0 -80 0 0 120 0 120 80 0 80 0 0 -120z m-290 -415 l0 -125 -80 0 -80 0 0 125 0 125 80 0 80 0 0 -125z m290 0 l0 -125 -80 0 -80 0 0 125 0 125 80 0 80 0 0 -125z"/> <path d="M710 85 l-85 -85 875 0 875 0 -85 85 -85 85 -705 0 -705 0 -85 -85z"/> </g> </svg> 