 <svg  version="1.0" xmlns="http://www.w3.org/2000/svg"  width="300.000000pt" height="300.000000pt" viewBox="0 0 300.000000 300.000000"  preserveAspectRatio="xMidYMid meet">  <g transform="translate(0.000000,300.000000) scale(0.100000,-0.100000)" fill="#2883c8" stroke="none"> <path d="M1015 2523 c-38 -10 -65 -36 -75 -72 -8 -24 -10 -314 -8 -899 l3 -863 -35 3 -35 3 -3 683 -2 682 -311 0 -311 0 -29 -29 -29 -29 0 -656 0 -656 -90 0 -90 0 0 -110 0 -110 1500 0 1500 0 0 110 0 110 -82 0 -83 0 3 627 c2 346 0 642 -3 659 -3 18 -17 44 -32 58 l-26 26 -318 0 -319 0 -2 -682 -3 -683 -35 -3 -35 -3 3 863 c2 585 0 875 -8 899 -6 21 -22 45 -38 55 -25 18 -57 19 -507 21 -264 0 -489 -1 -500 -4z m586 -59 c115 -34 207 -119 249 -231 31 -83 26 -206 -12 -283 -43 -88 -90 -135 -176 -177 -70 -35 -83 -38 -162 -38 -79 0 -92 3 -162 38 -86 42 -133 89 -176 177 -38 77 -43 200 -12 282 69 185 266 286 451 232z m-1106 -739 l0 -70 -77 -3 -78 -3 0 76 0 76 78 -3 77 -3 0 -70z m235 0 l0 -75 -75 0 -75 0 0 75 0 75 75 0 75 0 0 -75z m1730 0 l0 -75 -75 0 -75 0 0 75 0 75 75 0 75 0 0 -75z m240 0 l0 -75 -75 0 -75 0 0 75 0 75 75 0 75 0 0 -75z m-2202 -257 l-3 -73 -77 -3 -78 -3 0 76 0 75 80 0 81 0 -3 -72z m232 -3 l0 -75 -75 0 -75 0 0 75 0 75 75 0 75 0 0 -75z m1730 0 l0 -75 -75 0 -75 0 0 75 0 75 75 0 75 0 0 -75z m240 0 l0 -75 -75 0 -75 0 0 75 0 75 75 0 75 0 0 -75z m-2205 -265 l0 -75 -77 -3 -78 -3 0 81 0 81 78 -3 77 -3 0 -75z m235 0 l0 -80 -75 0 -75 0 0 80 0 80 75 0 75 0 0 -80z m1730 0 l0 -80 -75 0 -75 0 0 80 0 80 75 0 75 0 0 -80z m240 0 l0 -80 -75 0 -75 0 0 80 0 80 75 0 75 0 0 -80z m-962 -222 l2 -278 -225 0 -225 0 0 280 0 280 223 -2 222 -3 3 -277z"/> <path d="M1410 2270 l0 -69 -72 -3 -73 -3 0 -90 0 -90 73 -3 72 -3 0 -69 0 -70 90 0 90 0 0 70 0 69 73 3 72 3 0 90 0 90 -72 3 -73 3 0 69 0 70 -90 0 -90 0 0 -70z"/> </g> </svg> 