 <svg  version="1.0" xmlns="http://www.w3.org/2000/svg"  width="300.000000pt" height="300.000000pt" viewBox="0 0 300.000000 300.000000"  preserveAspectRatio="xMidYMid meet">  <g transform="translate(0.000000,300.000000) scale(0.100000,-0.100000)" fill="#449eca" stroke="none"> <path d="M838 2668 c-3 -30 -6 -33 -40 -36 l-38 -3 0 -1125 0 -1124 -70 0 -70 0 0 -40 0 -40 745 0 745 0 0 40 0 40 -70 0 -70 0 2 402 3 402 28 -1 c72 -3 67 3 67 -73 l0 -70 155 0 155 0 0 680 0 680 -155 0 -155 0 0 -70 0 -70 -50 0 -50 0 0 184 0 185 -37 3 c-35 3 -38 6 -41 36 l-3 32 -524 0 -524 0 -3 -32z m242 -247 c5 -11 10 -58 10 -105 l0 -86 -110 0 -110 0 0 93 c0 59 4 97 12 105 8 8 45 12 100 12 76 0 89 -2 98 -19z m384 -3 c11 -16 16 -46 16 -105 l0 -83 -115 0 -115 0 0 87 c0 116 6 123 116 123 74 0 84 -2 98 -22z m380 6 c12 -12 16 -37 16 -105 l0 -89 -110 0 -110 0 0 93 c0 59 4 97 12 105 19 19 173 16 192 -4z m354 -244 c0 -35 -4 -60 -10 -58 -14 5 -16 118 -2 118 8 0 12 -22 12 -60z m72 0 c0 -33 -4 -60 -10 -60 -6 0 -10 27 -10 60 0 33 4 60 10 60 6 0 10 -27 10 -60z m-205 -460 l0 -465 -47 -3 -48 -3 0 471 0 471 48 -3 47 -3 0 -465z m-997 324 c20 -14 22 -23 22 -110 l0 -94 -110 0 -110 0 0 94 c0 116 9 126 110 126 43 0 73 -5 88 -16z m392 -4 c18 -18 20 -31 18 -108 l-3 -87 -112 -3 -113 -3 0 91 c0 119 10 130 115 130 62 0 78 -3 95 -20z m379 3 c20 -16 22 -26 19 -108 l-3 -90 -107 -3 -108 -3 0 95 c0 87 2 96 22 110 32 23 149 22 177 -1z m423 -50 c52 -47 -18 -134 -75 -90 -28 21 -32 62 -8 86 25 25 58 27 83 4z m-67 -223 c-3 -5 -10 -10 -16 -10 -5 0 -9 5 -9 10 0 6 7 10 16 10 8 0 12 -4 9 -10z m38 -48 c0 -70 -17 -67 -21 4 -2 40 0 55 9 52 7 -2 12 -25 12 -56z m37 48 c0 -5 -2 -10 -4 -10 -3 0 -8 5 -11 10 -3 6 -1 10 4 10 6 0 11 -4 11 -10z m-1196 -116 c12 -12 16 -37 16 -105 l0 -89 -110 0 -110 0 0 93 c0 59 4 97 12 105 19 19 173 16 192 -4z m390 -6 c11 -16 16 -46 16 -105 l0 -83 -115 0 -115 0 0 87 c0 116 6 123 116 123 74 0 84 -2 98 -22z m380 6 c12 -12 16 -37 16 -105 l0 -89 -110 0 -110 0 0 93 c0 59 4 97 12 105 19 19 173 16 192 -4z m366 -135 c0 -26 3 -31 20 -26 11 3 23 1 26 -4 3 -5 -6 -9 -20 -9 -20 0 -26 -5 -26 -21 0 -17 5 -20 25 -17 14 3 25 1 25 -3 0 -5 -16 -9 -35 -9 l-35 0 0 60 c0 33 4 60 10 60 6 0 10 -14 10 -31z m27 24 c-4 -3 -10 -3 -14 0 -3 4 0 7 7 7 7 0 10 -3 7 -7z m20 -10 c-4 -3 -7 0 -7 7 0 7 3 10 7 7 3 -4 3 -10 0 -14z m-47 -267 c0 -52 1 -55 28 -59 22 -3 20 -4 -10 -6 l-38 -1 0 60 c0 33 4 60 10 60 6 0 10 -24 10 -54z m-1136 5 c13 -11 16 -33 16 -107 l0 -94 -110 0 -110 0 0 94 c0 87 2 96 23 111 27 20 155 17 181 -4z m371 7 c32 -14 37 -34 33 -128 l-3 -75 -112 -3 -113 -3 0 89 c0 88 8 114 40 125 28 10 129 7 155 -5z m393 -4 c20 -14 22 -23 22 -110 l0 -95 -112 3 -113 3 4 90 c1 49 5 94 8 98 18 29 154 37 191 11z m-300 -656 l2 -238 -175 0 -175 0 0 233 c0 129 3 237 7 241 4 3 81 5 172 4 l166 -3 3 -237z"/> <path d="M2188 1975 c-22 -49 25 -98 60 -63 13 13 16 47 6 72 -10 26 -53 20 -66 -9z"/> </g> </svg> 