<?xml version="1.0" standalone="no"?>
<!DOCTYPE svg PUBLIC "-//W3C//DTD SVG 20010904//EN"
 "http://www.w3.org/TR/2001/REC-SVG-20010904/DTD/svg10.dtd">
<svg version="1.0" xmlns="http://www.w3.org/2000/svg"
 width="300.000000pt" height="200.000000pt" viewBox="0 0 300.000000 200.000000"
 preserveAspectRatio="xMidYMid meet">
<metadata>
Created by potrace 1.10, written by Peter Selinger 2001-2011
</metadata>
<g transform="translate(0.000000,200.000000) scale(0.100000,-0.100000)"
fill="#0e94cd" stroke="none">
<path d="M1239 1644 c-15 -3 -51 -19 -80 -37 -43 -26 -60 -44 -85 -94 -35 -67
-54 -177 -36 -209 8 -14 5 -25 -14 -47 -14 -16 -24 -41 -24 -58 0 -37 30 -96
64 -128 14 -14 26 -32 26 -41 0 -9 13 -37 29 -62 75 -118 244 -142 353 -50 17
15 44 54 60 87 15 33 42 76 59 96 41 49 50 109 21 149 -12 16 -19 35 -16 43 6
17 -19 169 -36 212 -35 91 -106 137 -220 141 -41 1 -87 0 -101 -2z m187 -63
c51 -23 80 -59 99 -124 8 -28 15 -54 15 -57 0 -4 -23 4 -50 18 -92 46 -253 40
-363 -13 l-48 -23 6 32 c18 85 69 149 140 174 50 17 155 14 201 -7z m39 -205
c28 -13 58 -32 67 -43 17 -18 17 -21 0 -53 -19 -39 -28 -40 -169 -25 -45 5
-82 3 -132 -10 -81 -20 -106 -15 -126 25 -21 41 -19 57 10 76 85 56 263 71
350 30z m-380 -133 l18 -28 -21 19 c-12 11 -22 23 -22 28 0 14 7 9 25 -19z
m-12 -88 l6 -40 -19 24 c-21 24 -25 56 -13 87 6 16 8 15 13 -6 4 -14 10 -43
13 -65z m517 38 c0 -28 -20 -73 -33 -73 -5 0 -6 8 -3 17 4 9 10 37 13 61 6 44
23 41 23 -5z m-188 11 c38 -9 83 -14 99 -10 26 5 28 3 24 -22 -3 -15 -9 -56
-15 -91 -20 -136 -148 -215 -268 -166 -75 32 -109 82 -123 184 -5 36 -12 74
-15 83 -5 15 -2 16 26 6 25 -8 45 -7 93 5 34 9 71 18 82 20 11 3 21 5 23 6 2
0 35 -6 74 -15z"/>
<path d="M1185 1126 c-20 -15 -17 -44 7 -59 12 -8 21 -7 32 2 36 30 -1 85 -39
57z"/>
<path d="M1408 1129 c-39 -22 -8 -81 31 -59 25 13 27 33 5 54 -8 9 -16 16 -17
16 -1 0 -10 -5 -19 -11z"/>
<path d="M1753 1523 l-21 -77 29 -37 c29 -37 29 -37 29 -177 0 -117 -3 -141
-15 -146 -21 -8 -45 -67 -45 -110 0 -26 7 -40 30 -59 17 -14 30 -34 30 -45 0
-24 8 -32 26 -25 8 3 14 19 14 37 0 25 -7 36 -30 49 -25 15 -30 25 -30 55 0
28 3 33 12 24 20 -20 45 -14 73 19 27 33 28 50 8 154 -5 28 -4 29 12 15 28
-23 65 -111 65 -155 0 -22 -11 -64 -25 -93 -29 -62 -31 -85 -10 -102 18 -15
37 -3 30 19 -3 10 7 44 21 75 21 46 25 69 22 111 -5 65 -51 161 -85 178 -23
13 -25 19 -25 81 0 56 4 73 24 102 l25 35 -21 74 -21 75 -50 0 -50 0 -22 -77z
m106 -13 c11 -44 11 -54 -3 -75 -20 -30 -37 -32 -61 -5 -17 18 -17 25 -5 75
11 46 17 55 35 55 17 0 24 -9 34 -50z m-19 -194 c0 -42 5 -78 10 -81 8 -5 8
-11 1 -19 -6 -7 -11 -47 -13 -90 -2 -62 -7 -81 -20 -90 -13 -8 -21 -7 -29 1
-10 10 -8 17 6 33 17 19 20 40 22 158 1 75 3 143 3 150 0 6 5 12 10 12 6 0 10
-31 10 -74z"/>
<path d="M794 818 c-15 -4 -35 -15 -46 -25 -42 -37 -48 -66 -48 -213 0 -161
10 -198 62 -230 32 -19 48 -20 749 -20 711 0 716 0 743 21 49 39 56 65 56 226
0 129 -3 152 -20 180 -40 67 5 63 -769 66 -386 1 -713 -1 -727 -5z m1414 -39
c34 -12 62 -47 62 -79 0 -20 -2 -20 -765 -20 -740 0 -765 1 -765 19 0 24 37
70 64 81 32 13 1366 12 1404 -1z m62 -248 c0 -101 -2 -110 -25 -135 -13 -14
-32 -26 -42 -26 -10 0 -331 -1 -713 -1 l-695 0 -27 30 c-27 30 -28 36 -28 136
l0 105 765 0 765 0 0 -109z"/>
<path d="M987 583 c-4 -3 -7 -12 -7 -20 0 -11 95 -13 548 -11 478 3 547 5 547
18 0 13 -68 15 -541 18 -297 1 -544 -1 -547 -5z"/>
<path d="M980 500 c0 -20 4 -20 548 -18 478 3 547 5 547 18 0 13 -69 15 -547
18 -544 2 -548 2 -548 -18z"/>
<path d="M982 423 c3 -17 37 -18 528 -21 289 -1 535 0 548 3 12 3 22 12 22 20
0 13 -71 15 -551 15 -519 0 -550 -1 -547 -17z"/>
</g>
</svg>
