 <svg  version="1.0" xmlns="http://www.w3.org/2000/svg"  width="201.000000pt" height="250.000000pt" viewBox="0 0 201.000000 250.000000"  preserveAspectRatio="xMidYMid meet">  <g transform="translate(0.000000,250.000000) scale(0.100000,-0.100000)" fill="#2b87b6" stroke="none"> <path d="M916 2490 c-16 -5 -44 -23 -62 -41 l-33 -32 -31 26 c-61 52 -149 45 -218 -18 -36 -32 -38 -33 -67 -17 -43 22 -119 20 -153 -4 -38 -28 -62 -81 -62 -135 0 -41 -5 -52 -39 -86 -65 -65 -68 -153 -7 -218 18 -19 47 -38 64 -41 30 -6 31 -7 29 -63 -2 -53 -1 -56 22 -56 20 0 26 7 33 35 5 19 16 52 25 72 22 51 13 68 -37 68 -75 0 -117 39 -112 103 2 31 32 68 62 78 28 10 28 11 27 86 -2 67 0 76 22 94 32 26 79 24 123 -6 20 -14 40 -25 44 -25 3 0 27 23 53 50 43 46 51 50 92 50 50 0 73 -17 103 -78 23 -45 56 -41 69 8 13 51 53 90 95 90 49 0 71 -16 93 -66 19 -43 21 -44 65 -44 37 0 51 -6 75 -29 16 -16 29 -39 29 -51 0 -59 -58 -120 -113 -120 -48 0 -57 -9 -57 -60 0 -119 -138 -158 -227 -63 -45 47 -66 41 -75 -21 -4 -27 -13 -56 -22 -64 -18 -19 -74 -9 -109 18 -46 36 -75 20 -84 -47 -4 -28 0 -44 14 -61 23 -29 53 -20 53 15 0 20 3 24 18 17 9 -4 41 -10 69 -12 47 -3 56 -1 81 25 16 15 31 34 33 41 3 10 12 9 39 -4 56 -28 131 -30 184 -5 52 26 78 61 86 116 4 34 9 40 36 46 103 21 164 147 118 244 -19 41 -47 60 -107 76 -30 7 -48 18 -55 34 -27 59 -119 96 -186 75z"/> <path d="M301 1658 c-7 -57 -15 -120 -18 -140 l-6 -38 193 0 193 0 -6 48 c-4 26 -12 89 -18 140 l-12 92 -157 0 -157 0 -12 -102z"/> <path d="M269 1388 c0 -13 -4 -49 -8 -80 l-7 -58 216 0 216 0 -7 68 c-5 37 -8 73 -8 80 -1 9 -48 12 -201 12 l-200 0 -1 -22z"/> <path d="M246 1158 c-3 -13 -8 -45 -11 -72 l-7 -48 -84 7 -84 7 0 -446 0 -446 945 0 945 0 0 330 c0 284 -2 330 -15 330 -28 0 -1208 150 -1213 154 -2 2 -8 40 -13 83 -6 43 -12 88 -15 101 l-4 22 -220 0 -220 0 -4 -22z m452 -440 c17 -17 17 -359 0 -376 -17 -17 -289 -17 -306 0 -8 8 -12 65 -12 190 0 158 2 178 18 187 25 15 285 14 300 -1z m806 -70 c13 -18 16 -51 16 -151 0 -71 -5 -137 -10 -148 -10 -17 -23 -19 -160 -19 -137 0 -150 2 -160 19 -5 11 -10 78 -10 150 0 176 -5 171 174 171 128 0 136 -1 150 -22z"/> <path d="M10 60 l0 -60 995 0 995 0 0 60 0 60 -995 0 -995 0 0 -60z"/> </g> </svg> 