 <svg  version="1.0" xmlns="http://www.w3.org/2000/svg"  width="211.000000pt" height="239.000000pt" viewBox="0 0 211.000000 239.000000"  preserveAspectRatio="xMidYMid meet">  <g transform="translate(0.000000,239.000000) scale(0.100000,-0.100000)" fill="#2186c4" stroke="none"> <path d="M1142 2379 c-23 -4 -68 -19 -100 -33 -37 -16 -83 -26 -131 -29 -60 -4 -77 -9 -96 -28 -26 -27 -88 -207 -83 -240 2 -12 15 -31 31 -43 l27 -20 115 38 c130 42 142 53 152 136 6 50 8 53 47 71 154 67 362 -4 468 -161 18 -28 43 -53 56 -56 36 -10 72 4 82 32 15 38 -13 87 -95 169 -135 135 -311 196 -473 164z m-214 -201 c-3 -7 -12 -14 -21 -16 -12 -2 -15 1 -11 12 7 19 38 22 32 4z"/> <path d="M26 1905 c-37 -37 -23 -95 29 -115 12 -5 70 -48 127 -95 251 -211 479 -325 714 -357 85 -11 92 -14 102 -40 19 -51 104 -47 118 6 5 21 13 25 70 31 237 25 485 148 754 375 52 44 103 80 112 80 21 0 58 46 58 71 0 11 -9 28 -20 39 -20 20 -33 20 -1034 20 -890 0 -1016 -2 -1030 -15z"/> <path d="M1515 1343 c-55 -37 -158 -68 -315 -93 -387 -62 -450 -73 -505 -92 -118 -39 -165 -86 -165 -166 0 -78 44 -132 150 -181 36 -16 94 -35 129 -41 58 -10 67 -10 90 8 33 24 39 64 13 90 -10 10 -47 24 -83 31 -72 15 -157 54 -166 78 -16 42 93 76 382 118 337 49 475 86 548 146 43 35 49 77 17 109 -27 27 -48 25 -95 -7z"/> <path d="M1025 1048 c-11 -6 -23 -16 -27 -22 -4 -6 -8 -94 -8 -196 0 -152 3 -190 16 -208 19 -28 67 -29 94 -2 19 19 20 33 20 209 l0 190 -26 20 c-30 24 -41 25 -69 9z"/> <path d="M1191 831 c-26 -26 -27 -73 -3 -93 9 -8 35 -20 57 -26 127 -36 86 -90 -102 -133 -236 -56 -288 -70 -341 -94 -62 -29 -106 -65 -128 -107 -31 -59 -6 -108 55 -108 26 0 36 7 53 35 33 57 79 76 313 129 193 44 258 69 306 117 86 86 54 214 -68 267 -79 34 -118 37 -142 13z"/> <path d="M1017 379 c-26 -20 -27 -23 -27 -135 l0 -114 -245 0 c-232 0 -246 -1 -265 -20 -26 -26 -26 -64 0 -90 20 -20 33 -20 569 -20 540 0 549 0 575 21 31 25 34 61 6 89 -19 19 -33 20 -265 20 l-245 0 0 109 c0 89 -3 112 -17 129 -28 31 -56 35 -86 11z"/> </g> </svg> 