 <svg  version="1.0" xmlns="http://www.w3.org/2000/svg"  width="300.000000pt" height="300.000000pt" viewBox="0 0 300.000000 300.000000"  preserveAspectRatio="xMidYMid meet">  <g transform="translate(0.000000,300.000000) scale(0.100000,-0.100000)" fill="#1e81b0" stroke="none"> <path d="M126 2874 c-14 -14 -16 -152 -16 -1374 0 -1222 2 -1360 16 -1374 14 -14 152 -16 1374 -16 1222 0 1360 2 1374 16 14 14 16 152 16 1374 0 1222 -2 1360 -16 1374 -14 14 -152 16 -1374 16 -1222 0 -1360 -2 -1374 -16z m2682 -96 l3 -28 -1310 0 -1311 0 0 23 c0 13 3 27 7 30 3 4 592 6 1307 5 l1301 -3 3 -27z m-3 -1278 l0 -1165 -597 -3 -598 -2 0 175 0 175 24 0 c54 0 59 66 5 77 l-29 6 0 167 0 168 29 7 c52 11 52 71 0 82 l-29 6 0 196 c0 140 -3 200 -12 209 -9 9 -134 12 -500 12 -472 0 -488 -1 -498 -19 -6 -13 -10 -232 -10 -641 l0 -620 -197 2 -198 3 -3 1155 c-1 635 0 1161 3 1168 3 10 270 12 1307 10 l1303 -3 0 -1165z m-1275 -138 l0 -168 -32 -9 c-28 -8 -33 -15 -33 -40 0 -25 5 -32 33 -40 l32 -9 0 -168 0 -168 -24 0 c-54 0 -64 -71 -11 -80 l30 -5 0 -170 0 -170 -422 -3 -423 -2 0 600 0 600 425 0 425 0 0 -168z m1278 -1139 l-3 -28 -1305 0 -1305 0 -3 28 -3 27 1311 0 1311 0 -3 -27z"/> <path d="M1072 2538 c-7 -7 -12 -24 -12 -38 0 -21 -5 -26 -26 -25 -30 0 -50 -24 -41 -49 4 -9 20 -24 37 -34 28 -16 30 -21 30 -75 0 -57 0 -57 -22 -46 -62 32 -77 49 -72 78 12 61 -50 100 -77 49 -6 -13 -13 -24 -14 -26 -1 -1 -14 3 -28 9 -21 9 -30 9 -42 -1 -22 -18 -19 -57 6 -70 16 -9 18 -14 9 -26 -7 -7 -9 -25 -6 -39 5 -19 13 -25 34 -25 15 0 35 7 46 15 16 12 24 11 67 -13 27 -15 49 -30 49 -33 0 -4 -19 -18 -42 -32 l-43 -25 -32 20 c-42 25 -77 21 -81 -10 -2 -13 4 -32 12 -41 15 -16 14 -19 -9 -31 -30 -16 -41 -46 -25 -65 15 -18 43 -19 71 -5 15 8 19 7 19 -4 0 -23 36 -39 60 -26 15 8 20 21 20 49 0 36 4 41 44 65 25 14 47 26 50 26 3 0 6 -24 6 -52 0 -49 -3 -55 -35 -76 -19 -12 -35 -31 -35 -41 0 -25 25 -45 49 -38 16 4 20 -1 23 -26 6 -61 70 -62 76 0 3 26 6 29 32 25 21 -3 31 1 39 17 15 28 1 55 -39 71 -28 12 -30 16 -30 66 0 30 3 54 7 54 3 0 26 -11 49 -25 40 -23 43 -29 46 -73 3 -45 4 -47 33 -47 20 0 33 7 40 22 8 16 15 19 28 11 10 -5 30 -8 45 -6 39 4 44 50 7 74 -19 13 -23 20 -14 30 6 7 9 23 7 36 -4 29 -36 35 -77 13 -29 -15 -32 -14 -76 13 -50 31 -49 35 14 67 32 16 35 16 65 0 44 -24 70 -17 74 19 2 16 -2 32 -9 37 -10 6 -6 13 14 29 31 25 34 42 11 65 -16 16 -28 16 -66 0 -13 -5 -18 -2 -18 9 0 8 -9 20 -21 26 -30 17 -59 -12 -59 -60 0 -34 -4 -39 -50 -64 l-50 -27 0 59 c0 57 1 59 35 75 26 12 35 23 35 41 0 30 -24 50 -50 43 -16 -4 -20 0 -20 22 0 30 -16 51 -40 51 -9 0 -21 -5 -28 -12z"/> <path d="M1966 2524 c-14 -13 -16 -58 -16 -334 0 -276 2 -321 16 -334 13 -14 59 -16 349 -16 290 0 336 2 349 16 14 13 16 58 16 333 0 295 -1 319 -18 334 -17 15 -56 17 -350 17 -287 0 -333 -2 -346 -16z m629 -334 l0 -265 -280 0 -280 0 -3 255 c-1 140 0 260 3 267 3 10 65 13 282 11 l278 -3 0 -265z"/> <path d="M2140 2350 c-8 -14 -8 -26 0 -40 10 -19 21 -20 175 -20 154 0 165 1 175 20 8 14 8 26 0 40 -10 19 -21 20 -175 20 -154 0 -165 -1 -175 -20z"/> <path d="M2140 2210 c-8 -14 -8 -26 0 -40 10 -19 21 -20 175 -20 152 0 165 1 175 19 13 25 13 27 -6 45 -13 13 -43 16 -174 16 -149 0 -160 -1 -170 -20z"/> <path d="M2140 2070 c-8 -14 -8 -26 0 -40 10 -19 21 -20 175 -20 152 0 165 1 175 19 13 25 13 27 -6 45 -13 13 -43 16 -174 16 -149 0 -160 -1 -170 -20z"/> <path d="M2683 1013 c-10 -3 -13 -39 -13 -128 0 -111 2 -125 18 -134 14 -7 25 -6 40 5 20 14 22 24 22 120 0 132 -13 159 -67 137z"/> </g> </svg> 