 <svg  version="1.0" xmlns="http://www.w3.org/2000/svg"  width="200.000000pt" height="200.000000pt" viewBox="0 0 200.000000 200.000000"  preserveAspectRatio="xMidYMid meet">  <g transform="translate(0.000000,200.000000) scale(0.100000,-0.100000)" fill="#2778a0" stroke="none"> <path d="M1030 1863 c-8 -3 -25 -15 -38 -26 -25 -24 -73 -27 -118 -7 -45 19 -79 7 -99 -37 -23 -51 -41 -63 -91 -63 -61 0 -86 -24 -89 -87 -3 -62 -7 -69 -53 -91 -20 -9 -43 -29 -51 -44 -14 -25 -14 -31 7 -72 23 -48 21 -63 -10 -108 -29 -42 -23 -75 22 -124 39 -43 40 -45 34 -99 -8 -67 7 -89 66 -99 43 -7 70 -36 70 -74 0 -12 11 -34 25 -48 23 -23 30 -24 84 -18 58 6 58 6 99 -35 22 -22 49 -41 59 -41 10 0 38 14 62 30 50 34 56 35 95 15 57 -30 126 -6 126 44 0 29 38 51 87 51 58 0 83 25 83 83 0 51 15 74 61 96 43 20 58 59 40 104 -25 61 -24 76 3 111 38 51 34 85 -14 129 l-41 36 7 64 c6 60 5 65 -17 81 -13 9 -33 16 -44 16 -35 0 -64 29 -76 76 -15 60 -44 79 -101 68 -59 -11 -69 -8 -103 30 -31 35 -59 48 -85 39z m113 -232 c61 -29 128 -97 159 -158 19 -40 23 -63 23 -143 -1 -112 -21 -164 -91 -234 -70 -70 -122 -90 -234 -91 -80 0 -103 4 -143 23 -63 31 -127 96 -157 157 -32 64 -39 183 -17 249 33 95 110 176 205 211 59 23 196 15 255 -14z"/> <path d="M980 1561 c0 -23 -6 -30 -26 -35 -47 -12 -74 -50 -74 -104 0 -57 17 -78 101 -120 46 -23 54 -31 57 -59 2 -23 -2 -34 -17 -42 -27 -15 -49 -4 -67 31 -14 27 -19 29 -52 23 -20 -4 -38 -8 -39 -9 -1 -1 2 -18 7 -38 11 -37 39 -62 83 -73 18 -5 27 -15 29 -33 2 -21 8 -27 28 -27 19 0 26 6 28 26 2 18 13 31 38 42 23 11 40 30 50 52 27 66 -6 123 -97 165 -50 24 -68 52 -55 85 9 25 55 18 68 -10 9 -20 18 -25 50 -25 34 0 38 3 38 24 0 28 -42 82 -70 91 -14 4 -20 15 -20 36 0 26 -3 29 -30 29 -26 0 -30 -3 -30 -29z"/> <path d="M45 1390 c-21 -23 -19 -50 19 -398 19 -169 29 -220 45 -248 12 -20 93 -122 180 -228 l159 -192 7 -92 c7 -83 10 -93 29 -98 11 -2 88 -3 170 -2 l150 3 7 29 c5 16 9 93 11 170 l3 142 -38 77 c-31 62 -53 90 -118 149 -44 40 -119 123 -166 183 -48 61 -98 122 -112 138 -30 33 -72 36 -101 7 -37 -37 -26 -71 71 -227 83 -134 102 -181 66 -167 -19 7 -145 200 -192 294 -34 67 -38 86 -46 186 -10 137 -33 251 -55 275 -22 25 -66 24 -89 -1z"/> <path d="M1866 1391 c-22 -24 -44 -134 -55 -272 -8 -98 -14 -120 -45 -184 -42 -86 -184 -305 -197 -305 -28 0 -11 41 71 172 106 171 113 205 52 237 -44 24 -67 6 -180 -138 -60 -77 -131 -157 -158 -179 -71 -56 -113 -107 -148 -182 -31 -65 -31 -66 -28 -213 1 -81 7 -159 12 -172 l10 -25 167 2 168 3 10 96 10 96 148 177 c170 203 193 235 206 285 6 20 22 159 37 308 27 264 27 273 9 293 -23 25 -67 26 -89 1z"/> <path d="M227 1272 c7 -48 15 -108 18 -134 6 -45 7 -47 29 -37 23 11 23 11 9 87 -22 118 -32 151 -51 161 -16 9 -17 4 -5 -77z"/> <path d="M1766 1345 c-17 -18 -29 -56 -47 -159 -12 -64 -12 -69 6 -82 17 -13 20 -12 27 3 3 10 7 36 8 58 0 22 7 74 14 115 8 41 12 76 11 78 -1 2 -10 -4 -19 -13z"/> <path d="M314 1270 c3 -14 12 -53 18 -87 10 -47 17 -63 32 -67 11 -3 22 -4 23 -2 9 8 -41 144 -59 161 l-21 20 7 -25z"/> <path d="M1666 1271 c-9 -10 -25 -48 -36 -85 l-19 -66 25 0 c20 0 24 5 24 28 0 16 7 52 16 81 17 59 15 70 -10 42z"/> </g> </svg> 