 <svg  version="1.0" xmlns="http://www.w3.org/2000/svg"  width="300.000000pt" height="300.000000pt" viewBox="0 0 300.000000 300.000000"  preserveAspectRatio="xMidYMid meet">  <g transform="translate(0.000000,300.000000) scale(0.100000,-0.100000)" fill="#2d7cb9" stroke="none"> <path d="M1531 2974 c-64 -32 -98 -81 -114 -162 l-11 -61 -276 -3 c-301 -3 -316 -6 -356 -65 -18 -26 -19 -56 -24 -393 -5 -349 -6 -368 -28 -423 -46 -119 -46 -273 0 -405 l22 -63 -64 -64 c-59 -60 -65 -63 -84 -49 -11 8 -30 14 -41 14 -14 0 -101 -81 -257 -237 -214 -216 -237 -243 -253 -292 -42 -131 17 -275 139 -338 48 -25 153 -29 217 -8 47 16 74 37 201 163 l147 145 3 -321 c3 -306 4 -322 24 -349 11 -15 36 -36 55 -45 32 -17 101 -18 1029 -18 1110 0 1038 -5 1087 69 22 33 23 42 23 241 0 188 -2 208 -18 223 -26 24 -68 21 -86 -5 -13 -18 -16 -57 -16 -215 l0 -193 -987 2 -988 3 -3 366 -2 365 25 24 c27 26 34 77 13 98 -10 10 2 26 53 78 l66 65 64 -22 c88 -30 241 -37 329 -15 219 55 390 221 445 432 19 75 19 223 0 298 -78 299 -382 496 -683 442 -94 -16 -184 -56 -255 -109 -26 -21 -49 -37 -52 -37 -3 0 -4 116 -3 258 l3 257 116 3 116 3 5 -66 c7 -78 33 -123 93 -157 l40 -23 615 0 c575 0 617 1 652 18 56 28 89 84 96 162 l5 66 116 -3 116 -3 5 -820 c3 -451 6 -821 8 -822 1 -1 9 -9 18 -17 21 -22 50 -20 74 4 20 20 20 33 20 843 0 932 5 871 -80 915 -43 21 -54 22 -311 22 l-267 0 -6 54 c-10 78 -51 137 -117 170 l-53 26 -276 0 -276 0 -53 -26z m630 -123 c27 -28 29 -35 29 -107 0 -113 1 -114 167 -114 l133 0 0 -49 c0 -86 39 -81 -632 -81 -575 0 -588 0 -608 20 -14 14 -20 33 -20 65 l0 45 133 0 c164 0 163 -1 169 118 3 77 5 86 31 108 l28 24 270 0 271 0 29 -29z m-779 -712 c245 -51 417 -295 379 -539 -28 -187 -162 -342 -340 -394 -77 -23 -204 -21 -284 4 -256 79 -395 360 -306 618 77 224 318 360 551 311z m-517 -1009 l-55 -55 -57 57 -58 58 55 55 54 55 58 -57 58 -58 -55 -55z m-272 -383 c-205 -206 -244 -234 -314 -222 -45 8 -93 43 -114 86 -18 33 -19 96 -4 136 6 15 97 115 202 221 l192 192 112 -112 113 -113 -187 -188z"/> <path d="M1716 2734 c-24 -23 -20 -70 6 -88 17 -12 50 -16 141 -16 113 0 119 1 143 25 27 27 26 59 -4 83 -25 19 -266 17 -286 -4z"/> <path d="M1353 1718 l-143 -142 -63 62 c-67 67 -100 78 -130 44 -32 -35 -21 -59 72 -152 71 -71 96 -90 118 -90 23 0 58 30 196 168 130 130 167 173 167 193 0 29 -28 59 -55 59 -10 0 -82 -63 -162 -142z"/> <path d="M1997 1862 c-21 -23 -22 -52 -3 -78 13 -18 30 -19 271 -22 217 -3 261 -1 280 12 32 21 40 52 21 81 l-16 25 -269 0 c-247 0 -269 -1 -284 -18z"/> <path d="M1997 1582 c-21 -23 -22 -56 -1 -76 13 -13 45 -16 193 -16 193 0 204 3 204 55 0 52 -11 55 -203 55 -159 0 -179 -2 -193 -18z"/> <path d="M1327 915 c-92 -34 -176 -126 -197 -217 -35 -144 35 -295 168 -360 39 -19 63 -23 137 -23 81 0 95 3 143 29 89 50 161 150 143 199 -17 44 -71 50 -98 11 -37 -54 -77 -95 -102 -108 -130 -66 -281 28 -281 174 0 98 60 170 161 191 62 13 89 32 89 64 0 52 -78 71 -163 40z"/> <path d="M1544 758 l-94 -92 -28 27 c-47 45 -102 27 -102 -32 0 -21 15 -42 59 -84 33 -32 67 -57 77 -57 20 0 261 234 270 262 9 31 -22 68 -58 68 -25 0 -47 -16 -124 -92z"/> <path d="M1957 802 c-21 -23 -22 -56 -1 -76 14 -14 52 -16 307 -14 l291 3 15 26 c13 24 13 29 -2 53 l-17 26 -289 0 c-266 0 -289 -1 -304 -18z"/> <path d="M2878 798 c-30 -24 -31 -56 -4 -83 30 -30 49 -32 76 -5 27 27 26 65 -2 84 -27 19 -49 20 -70 4z"/> <path d="M1980 539 c-44 -18 -54 -63 -22 -92 16 -15 46 -17 208 -17 208 0 227 5 227 54 0 56 -16 61 -211 63 -103 1 -187 -2 -202 -8z"/> </g> </svg> 