<?xml version="1.0" standalone="no"?>
<!DOCTYPE svg PUBLIC "-//W3C//DTD SVG 20010904//EN"
 "http://www.w3.org/TR/2001/REC-SVG-20010904/DTD/svg10.dtd">
<svg version="1.0" xmlns="http://www.w3.org/2000/svg"
 width="200.000000pt" height="200.000000pt" viewBox="0 0 200.000000 200.000000"
 preserveAspectRatio="xMidYMid meet">
<metadata>
Created by potrace 1.10, written by Peter Selinger 2001-2011
</metadata>
<g transform="translate(0.000000,200.000000) scale(0.100000,-0.100000)"
fill="#1e81b0" stroke="none">
<path d="M112 1458 c-17 -17 -17 -649 0 -666 17 -17 1219 -17 1236 0 8 8 12
66 12 195 l0 183 69 0 c48 0 72 4 81 14 6 8 14 58 17 111 5 77 3 99 -8 106 -8
5 -47 9 -86 9 -64 0 -73 2 -73 18 0 10 -5 23 -12 30 -17 17 -1219 17 -1236 0z
m86 -25 c-55 -8 -58 -23 -58 -308 0 -220 2 -264 16 -283 14 -21 14 -22 -5 -22
-21 0 -21 4 -21 304 0 234 3 305 13 309 6 3 28 5 47 5 29 -1 30 -2 8 -5z
m1154 -40 c7 -7 43 -13 78 -15 l65 -3 3 -35 c2 -19 1 -59 -3 -87 -5 -43 -10
-53 -26 -53 -23 0 -24 6 -4 26 18 19 20 115 3 132 -18 18 -98 15 -120 -5 -23
-21 -25 -105 -3 -123 8 -7 15 -18 15 -25 0 -7 -7 -18 -15 -25 -12 -10 -15 -44
-15 -186 0 -169 -1 -174 -21 -174 -19 0 -19 1 -5 22 23 33 24 533 1 565 -14
20 -13 22 2 25 10 2 21 -3 24 -12 4 -9 13 -21 21 -27z m-62 -268 l0 -275 -560
0 -560 0 0 275 0 275 560 0 560 0 0 -275z m170 188 c0 -62 -9 -73 -56 -73
l-44 0 0 50 0 50 50 0 c48 0 50 -1 50 -27z"/>
<path d="M717 1364 c-4 -4 -7 -22 -7 -41 l0 -33 -26 16 c-20 13 -28 14 -37 5
-9 -10 -4 -20 26 -45 30 -27 37 -40 37 -69 l0 -37 -32 20 c-27 16 -34 27 -38
62 -4 35 -9 43 -25 43 -16 0 -19 -6 -17 -27 4 -32 0 -34 -33 -12 -13 9 -29 13
-35 9 -19 -12 -10 -35 22 -51 l32 -16 -32 -14 c-22 -9 -30 -18 -26 -28 8 -20
12 -20 60 0 36 15 41 15 71 -2 l33 -17 -31 -19 c-29 -18 -33 -18 -74 -2 -42
16 -65 13 -65 -7 0 -6 14 -16 32 -23 l32 -14 -32 -16 c-35 -18 -43 -46 -14
-46 10 0 28 7 41 16 22 16 23 16 19 -17 -2 -28 0 -34 17 -34 16 0 21 8 25 43
4 35 11 47 38 63 l32 21 0 -39 c0 -32 -5 -42 -35 -62 -35 -23 -44 -44 -25 -56
5 -3 21 2 35 11 l25 16 0 -36 c0 -29 4 -36 20 -36 16 0 20 7 20 36 l0 36 25
-16 c14 -9 30 -14 35 -11 19 12 10 33 -25 56 -30 20 -35 30 -35 62 l0 39 33
-21 c26 -16 33 -28 37 -63 4 -35 9 -43 25 -43 17 0 19 6 17 34 l-4 34 29 -20
c15 -11 34 -18 41 -16 22 8 12 32 -20 49 l-33 17 28 9 c17 6 27 17 27 29 0 23
-8 24 -59 3 -36 -14 -41 -14 -70 4 l-31 19 33 17 c30 17 35 17 71 2 48 -20 52
-20 60 0 4 10 -4 19 -26 28 l-32 14 32 16 c32 17 41 39 21 52 -6 3 -24 -4 -41
-16 l-30 -22 4 34 c2 27 0 33 -17 33 -16 0 -21 -8 -25 -43 -4 -35 -11 -46 -37
-62 l-33 -20 0 37 c0 29 7 42 38 69 29 25 34 35 25 45 -9 9 -17 9 -37 -4 -25
-17 -25 -17 -28 20 -3 35 -17 51 -31 37z m23 -99 c0 -8 -4 -15 -10 -15 -5 0
-10 7 -10 15 0 8 5 15 10 15 6 0 10 -7 10 -15z m-125 -65 c3 -5 1 -10 -4 -10
-6 0 -11 5 -11 10 0 6 2 10 4 10 3 0 8 -4 11 -10z m245 0 c0 -5 -4 -10 -10
-10 -5 0 -10 5 -10 10 0 6 5 10 10 10 6 0 10 -4 10 -10z m-113 -66 c8 -21 -13
-42 -28 -27 -13 13 -5 43 11 43 6 0 13 -7 17 -16z m113 -84 c0 -5 -4 -10 -10
-10 -5 0 -10 5 -10 10 0 6 5 10 10 10 6 0 10 -4 10 -10z m-120 -65 c0 -8 -4
-15 -10 -15 -5 0 -10 7 -10 15 0 8 5 15 10 15 6 0 10 -7 10 -15z"/>
<path d="M1424 1129 c-9 -15 -23 -212 -23 -346 l-1 -103 -239 0 c-252 0 -268
-3 -259 -47 3 -17 22 -18 283 -18 l280 0 6 155 c4 85 7 188 8 228 1 61 4 72
19 72 14 0 18 -10 20 -53 6 -107 54 -147 203 -170 56 -9 102 -17 103 -19 1 -2
0 -36 -2 -75 -3 -62 -6 -73 -22 -73 -25 0 -43 -25 -35 -50 5 -16 15 -20 55
-20 27 0 52 4 55 10 3 5 10 62 16 126 l10 117 -36 102 c-27 76 -46 112 -71
136 l-35 34 -164 3 c-120 2 -165 0 -171 -9z m47 -46 c-18 -25 -21 -50 -27
-235 l-7 -208 -24 0 c-23 0 -23 0 -5 20 17 18 20 44 26 227 4 113 9 210 12
214 3 5 14 9 25 9 19 0 19 0 0 -27z m106 9 c-21 -23 -22 -93 -2 -131 8 -16 27
-39 42 -50 l28 -22 -32 16 c-44 21 -60 49 -69 115 -3 30 -13 63 -22 73 -14 16
-12 17 28 17 41 0 42 -1 27 -18z m214 -29 c9 -10 30 -59 48 -110 30 -84 32
-98 27 -170 -11 -130 -14 -143 -38 -143 -21 0 -21 0 -2 21 14 15 20 40 23 97
3 74 3 77 -25 99 -16 13 -24 23 -17 23 38 0 13 116 -39 184 -22 27 -25 35 -12
28 11 -6 26 -18 35 -29z m-44 -15 c15 -18 63 -125 63 -142 0 -10 -185 34 -197
47 -9 9 -19 39 -23 67 l-6 50 71 0 c62 0 74 -3 92 -22z"/>
<path d="M323 748 c-19 -24 -45 -107 -39 -123 4 -11 15 -15 33 -13 22 2 31 13
50 61 19 46 21 62 12 73 -14 17 -43 18 -56 2z m12 -77 c-29 -57 -31 -30 -2 39
8 20 11 21 14 8 2 -9 -3 -30 -12 -47z"/>
<path d="M434 716 c-27 -27 -34 -42 -34 -74 0 -110 144 -151 201 -58 23 37 24
67 4 106 -21 40 -53 60 -98 60 -31 0 -46 -7 -73 -34z m132 -17 c8 -7 14 -30
14 -60 0 -38 -4 -51 -19 -59 -31 -16 -34 -12 -12 16 26 34 27 68 1 94 -28 28
-64 25 -89 -6 -27 -35 -26 -59 4 -89 16 -16 19 -25 10 -25 -21 0 -45 41 -45
76 0 62 85 95 136 53z m-26 -34 c15 -19 4 -52 -21 -60 -38 -12 -65 35 -37 63
16 16 43 15 58 -3z"/>
<path d="M692 734 c-25 -17 -52 -64 -52 -89 0 -64 70 -123 133 -111 99 19 120
159 30 205 -31 16 -85 14 -111 -5z m112 -35 c19 -15 26 -29 26 -56 0 -37 -23
-73 -46 -73 -8 0 -3 10 11 25 30 30 31 54 4 89 -25 32 -55 33 -86 4 -29 -27
-29 -65 -1 -95 24 -25 9 -32 -16 -7 -10 9 -16 33 -16 59 0 38 4 46 28 59 38
21 65 20 96 -5z m-26 -31 c28 -28 1 -75 -37 -63 -25 8 -34 31 -21 56 12 21 40
25 58 7z"/>
<path d="M1547 730 c-30 -24 -50 -78 -42 -113 4 -14 20 -38 36 -53 41 -39 107
-41 144 -4 32 32 44 76 33 118 -17 64 -117 94 -171 52z m34 -36 c-36 -30 -39
-61 -10 -98 23 -29 15 -35 -13 -9 -11 10 -18 30 -18 52 0 41 6 53 35 69 35 20
38 13 6 -14z m72 15 c12 -7 25 -17 29 -23 14 -20 8 -79 -9 -98 -25 -28 -37
-21 -14 8 29 37 26 68 -10 98 -33 28 -31 33 4 15z m-8 -63 c0 -17 -7 -33 -18
-40 -15 -9 -22 -7 -37 12 -26 32 -11 65 28 60 22 -2 27 -8 27 -32z"/>
</g>
</svg>
