 <svg  version="1.0" xmlns="http://www.w3.org/2000/svg"  width="300.000000pt" height="300.000000pt" viewBox="0 0 300.000000 300.000000"  preserveAspectRatio="xMidYMid meet">  <g transform="translate(0.000000,300.000000) scale(0.100000,-0.100000)" fill="#1e7e9f" stroke="none"> <path d="M1725 2515 c-21 -36 -47 -72 -59 -79 -11 -8 -51 -19 -88 -26 -38 -7 -68 -14 -68 -17 0 -2 25 -34 56 -70 l55 -66 -6 -66 c-4 -36 -9 -74 -11 -83 -7 -24 4 -23 81 12 37 17 73 30 81 30 8 0 45 -14 84 -31 39 -18 73 -30 75 -27 3 2 1 37 -4 77 -5 41 -7 81 -3 90 3 9 27 41 54 70 26 30 48 58 48 61 0 3 -37 15 -82 25 l-83 20 -40 67 c-22 36 -43 69 -47 73 -3 4 -23 -23 -43 -60z"/> <path d="M1230 2250 c-24 -48 -51 -67 -107 -76 -24 -4 -43 -9 -43 -11 0 -3 16 -24 36 -46 34 -40 36 -45 32 -105 -3 -53 -2 -62 12 -56 101 41 100 41 202 -4 4 -2 5 23 2 55 -6 56 -5 60 30 103 41 51 43 60 19 60 -56 0 -94 22 -124 71 -17 27 -32 49 -35 49 -2 0 -13 -18 -24 -40z"/> <path d="M2252 2252 c-29 -52 -50 -68 -97 -77 -22 -4 -43 -9 -48 -12 -4 -2 8 -22 28 -44 37 -41 38 -45 35 -122 l-2 -48 39 17 c60 27 87 28 131 5 23 -12 44 -21 48 -21 3 0 3 27 -1 59 -7 59 -7 60 34 104 40 43 43 57 12 57 -53 0 -90 22 -120 70 -17 28 -32 50 -34 50 -2 0 -13 -17 -25 -38z"/> <path d="M1643 1940 c-118 -47 -202 -162 -211 -289 -5 -70 14 -157 41 -195 14 -19 16 -19 53 11 22 17 55 38 74 48 19 10 36 19 38 20 2 2 -8 19 -22 40 -106 155 50 351 221 280 48 -20 71 -41 94 -87 33 -64 22 -157 -23 -205 -12 -13 -20 -24 -17 -25 2 -2 21 -12 42 -22 20 -11 55 -34 77 -53 l39 -34 20 39 c11 22 25 68 32 103 15 82 -6 171 -56 245 -38 54 -66 79 -135 114 -65 34 -195 38 -267 10z"/> <path d="M1703 1790 c-74 -45 -83 -139 -19 -197 101 -92 255 25 193 147 -17 34 -74 70 -111 70 -17 0 -45 -9 -63 -20z"/> <path d="M1690 1484 c-60 -16 -90 -33 -132 -72 -27 -25 -27 -26 -10 -45 27 -30 105 -66 164 -75 96 -14 194 10 268 67 l25 20 -30 31 c-67 70 -187 101 -285 74z"/> <path d="M220 985 l0 -376 63 3 62 3 0 370 0 370 -62 3 -63 3 0 -376z"/> <path d="M570 1294 c-63 -7 -125 -13 -137 -13 l-23 -1 0 -275 c0 -233 2 -275 14 -275 8 0 45 7 83 16 46 11 94 14 148 11 91 -5 93 -6 590 -207 l330 -134 85 0 c72 0 97 5 160 31 149 62 925 444 943 464 26 33 23 104 -7 134 -45 45 -56 44 -429 -60 -412 -114 -397 -109 -397 -132 0 -53 -73 -113 -138 -113 -42 0 -597 162 -615 180 -12 11 2 50 18 50 7 0 137 -38 289 -85 151 -47 289 -85 306 -85 66 0 105 87 63 139 -19 22 -641 280 -783 325 -147 47 -284 55 -500 30z"/> </g> </svg> 