 <svg  version="1.0" xmlns="http://www.w3.org/2000/svg"  width="226.000000pt" height="223.000000pt" viewBox="0 0 226.000000 223.000000"  preserveAspectRatio="xMidYMid meet">  <g transform="translate(0.000000,223.000000) scale(0.100000,-0.100000)" fill="#2a77b2" stroke="none"> <path d="M300 2123 l0 -88 -137 -137 -138 -138 1103 0 1104 0 -131 137 -131 137 0 88 0 88 -835 0 -835 0 0 -87z"/> <path d="M22 1618 c3 -46 13 -88 26 -113 25 -49 101 -122 136 -131 l26 -6 0 -600 0 -599 -95 3 -95 3 0 -77 0 -78 1110 0 1110 0 0 78 0 77 -95 -3 -95 -3 0 598 0 599 34 12 c18 7 50 28 70 48 54 53 78 108 84 192 l5 72 -1113 0 -1113 0 5 -72z m595 -116 c14 -29 43 -68 65 -86 41 -36 121 -66 173 -66 53 0 132 30 175 68 40 33 69 80 95 151 12 32 14 33 14 11 2 -42 46 -123 89 -162 105 -95 263 -88 367 16 34 34 59 70 73 106 20 54 20 55 27 25 20 -79 87 -160 158 -189 l37 -15 0 -595 0 -596 -760 0 -760 0 0 595 0 596 44 18 c65 29 124 95 144 164 15 49 18 54 25 35 5 -13 20 -47 34 -76z"/> <path d="M650 1180 l0 -30 63 0 c48 0 68 -4 79 -17 15 -17 39 -105 117 -436 17 -70 38 -141 46 -157 27 -52 41 -55 285 -55 l225 0 0 25 0 25 -225 5 c-124 3 -226 7 -226 8 -4 6 -23 60 -29 80 l-6 22 203 0 c112 0 220 5 240 10 61 17 82 53 118 207 18 76 35 144 37 150 4 10 -71 13 -343 15 l-348 3 -12 50 c-27 102 -55 125 -159 125 l-65 0 0 -30z"/> <path d="M1029 427 c-43 -33 -50 -87 -14 -122 45 -46 127 -26 140 34 11 52 -27 100 -80 100 -16 0 -37 -5 -46 -12z"/> <path d="M1325 415 c-52 -51 -17 -135 56 -135 52 0 79 27 79 79 0 73 -84 108 -135 56z"/> </g> </svg> 