 <svg  version="1.0" xmlns="http://www.w3.org/2000/svg"  width="300.000000pt" height="326.000000pt" viewBox="0 0 300.000000 326.000000"  preserveAspectRatio="xMidYMid meet">  <g transform="translate(0.000000,326.000000) scale(0.100000,-0.100000)" fill="#3288bd" stroke="none"> <path d="M1480 3112 c-14 -2 -39 -14 -56 -27 -50 -38 -102 -48 -164 -29 -74 22 -120 8 -156 -46 -32 -48 -94 -80 -156 -80 -62 0 -105 -31 -129 -94 -24 -64 -61 -102 -120 -121 -61 -21 -89 -55 -89 -108 0 -59 -19 -113 -51 -143 -15 -14 -39 -36 -53 -49 -34 -32 -41 -67 -26 -130 16 -69 9 -115 -29 -172 -40 -60 -39 -92 5 -163 38 -62 39 -75 18 -193 -8 -50 10 -92 52 -117 49 -31 74 -79 83 -159 8 -81 25 -106 83 -122 47 -12 116 -72 125 -108 18 -77 60 -111 138 -111 57 0 116 -29 146 -72 44 -63 84 -76 151 -52 56 20 112 11 168 -26 59 -39 103 -39 161 -1 59 39 104 46 170 27 70 -21 106 -9 154 50 47 57 66 67 148 75 79 7 111 30 128 91 14 55 61 104 118 123 72 23 93 51 100 132 8 82 18 101 76 148 57 47 69 87 48 157 -18 63 -12 102 27 159 21 31 30 56 30 84 0 28 -9 53 -30 84 -40 58 -47 102 -26 166 21 67 10 101 -50 150 -57 47 -67 66 -75 148 -7 82 -32 113 -108 140 -55 19 -91 58 -110 119 -19 57 -62 88 -122 88 -68 0 -109 20 -153 73 -52 63 -81 74 -154 54 -66 -19 -118 -11 -164 23 -35 26 -74 37 -108 32z m217 -262 c327 -78 580 -351 633 -683 15 -93 8 -256 -15 -342 -8 -33 -34 -98 -56 -145 -141 -296 -430 -480 -755 -480 -558 0 -963 533 -809 1065 86 295 304 505 610 585 99 27 283 26 392 0z"/> <path d="M1395 2790 c-248 -36 -464 -192 -575 -415 -52 -105 -71 -179 -77 -301 -16 -310 153 -595 432 -725 116 -53 200 -72 330 -71 134 0 232 24 344 82 153 80 258 186 336 342 61 122 78 209 73 366 -5 147 -31 239 -100 357 -49 84 -180 216 -261 264 -148 87 -337 125 -502 101z m523 -367 c60 -45 72 -58 72 -82 0 -23 -66 -112 -305 -414 -168 -212 -315 -389 -326 -392 -11 -4 -29 -1 -40 7 -11 7 -98 98 -194 202 -131 141 -175 195 -175 214 0 18 21 46 74 100 95 95 97 94 232 -39 l101 -100 207 276 c115 153 217 280 229 284 30 11 41 6 125 -56z"/> <path d="M790 1137 c0 -1 -61 -168 -135 -371 -74 -203 -134 -370 -132 -372 1 -1 103 45 226 102 124 58 228 101 231 97 4 -5 51 -102 104 -218 54 -116 101 -213 104 -217 4 -4 68 162 143 368 82 225 131 374 124 374 -7 0 -32 13 -56 30 -48 32 -84 37 -152 18 -71 -18 -115 -4 -172 56 -63 66 -82 76 -142 76 -37 0 -61 7 -96 30 -26 16 -47 28 -47 27z"/> <path d="M2172 1113 c-24 -20 -49 -28 -100 -32 -77 -8 -99 -19 -130 -68 -30 -44 -100 -77 -151 -70 -139 21 -137 21 -174 -7 -18 -14 -38 -26 -43 -26 -39 -1 -35 -18 97 -381 72 -200 135 -367 138 -371 4 -4 53 94 110 217 58 124 106 225 109 225 2 0 105 -47 229 -105 164 -76 224 -100 221 -87 -10 36 -261 717 -267 724 -3 3 -21 -5 -39 -19z"/> </g> </svg> 