<?xml version="1.0" standalone="no"?>
<!DOCTYPE svg PUBLIC "-//W3C//DTD SVG 20010904//EN"
 "http://www.w3.org/TR/2001/REC-SVG-20010904/DTD/svg10.dtd">
<svg version="1.0" xmlns="http://www.w3.org/2000/svg"
 width="300.000000pt" height="300.000000pt" viewBox="0 0 300.000000 300.000000"
 preserveAspectRatio="xMidYMid meet">
<metadata>
Created by potrace 1.10, written by Peter Selinger 2001-2011
</metadata>
<g transform="translate(0.000000,300.000000) scale(0.100000,-0.100000)"
fill="#2884bd" stroke="none">
<path d="M520 2623 c-65 -68 -91 -130 -91 -218 0 -89 26 -150 92 -218 l58 -60
3 -456 c3 -439 4 -457 24 -491 24 -42 87 -80 132 -80 48 0 107 34 133 77 l24
38 3 458 3 457 46 43 c103 94 133 240 74 362 -33 71 -111 148 -144 143 -21 -3
-22 -9 -27 -126 l-5 -124 -33 -29 c-53 -47 -130 -36 -164 24 -7 12 -15 74 -18
137 -5 112 -6 115 -29 118 -18 3 -37 -10 -81 -55z m50 -118 c0 -80 16 -120 63
-162 59 -52 140 -56 208 -10 46 31 71 86 77 168 6 80 16 80 52 -3 18 -41 21
-64 17 -108 -8 -90 -33 -129 -136 -212 -21 -18 -21 -19 -21 -488 l0 -471 -25
-24 c-32 -33 -84 -33 -122 -1 l-28 24 -3 476 -3 475 -45 31 c-85 59 -126 159
-104 255 12 52 45 115 61 115 5 0 9 -29 9 -65z"/>
<path d="M1473 2605 c-232 -63 -413 -290 -413 -518 0 -51 -3 -57 -29 -73 -90
-53 -71 -184 30 -200 l36 -6 6 -92 c8 -114 28 -189 77 -291 42 -87 104 -168
162 -212 21 -15 37 -35 38 -44 0 -23 -59 -75 -112 -98 -27 -11 -121 -36 -210
-56 -90 -20 -192 -45 -226 -57 -62 -20 -123 -62 -142 -99 -16 -29 -42 -510
-29 -526 9 -11 177 -13 956 -13 882 0 944 1 950 17 4 10 2 124 -5 255 -8 175
-16 246 -27 267 -34 68 -114 104 -324 147 -189 39 -276 69 -322 111 -21 19
-39 40 -39 47 0 6 33 45 73 87 121 125 187 280 203 477 6 72 9 82 26 82 60 0
114 68 102 130 -6 28 -54 80 -75 80 -5 0 -9 19 -9 43 0 23 -7 74 -15 112 -44
209 -201 376 -405 430 -69 18 -209 18 -277 0z m190 -51 l37 -7 0 -126 c-1
-131 -5 -147 -47 -169 -35 -19 -63 -14 -94 17 -29 29 -29 30 -29 155 l0 125
33 4 c57 7 61 7 100 1z m-178 -304 c59 -100 204 -97 262 6 20 34 23 54 23 157
0 64 2 117 5 117 16 0 108 -54 151 -88 98 -77 173 -229 174 -349 l0 -63 -485
0 -485 0 0 58 c0 162 110 336 261 411 l64 32 5 -123 c4 -100 9 -130 25 -158z
m686 -300 c21 -12 25 -40 7 -58 -9 -9 -149 -12 -570 -12 l-558 0 -6 25 c-14
57 -30 55 563 55 356 0 551 -4 564 -10z m-114 -233 c-9 -162 -73 -311 -178
-419 -162 -166 -364 -165 -529 1 -112 113 -180 279 -180 438 l0 73 446 0 447
0 -6 -93z m-561 -591 c87 -30 141 -29 269 8 15 5 26 -3 48 -35 20 -29 46 -49
99 -75 40 -18 78 -34 85 -34 10 0 13 -63 13 -300 l0 -300 -55 0 -55 0 0 144
c0 130 -2 146 -21 170 l-20 26 -245 0 c-309 0 -284 16 -284 -190 l0 -150 -55
0 -55 0 0 294 0 294 88 43 c66 33 93 53 111 82 28 42 26 42 77 23z m-346 -446
l0 -290 -70 0 -70 0 0 274 0 275 58 11 c31 6 62 13 67 15 6 2 11 4 13 4 1 1 2
-129 2 -289z m1020 269 l50 -11 0 -274 0 -274 -70 0 -70 0 0 285 c0 324 -9
295 90 274z m-1230 -294 l0 -265 -111 0 -112 0 7 103 c3 56 9 153 12 216 8
134 17 148 109 186 103 42 95 63 95 -240z m1470 227 c30 -15 60 -38 66 -50 7
-14 15 -107 19 -215 3 -106 9 -200 11 -209 5 -16 -5 -18 -105 -18 l-111 0 0
266 0 266 33 -7 c17 -3 57 -18 87 -33z m-580 -357 l0 -135 -215 0 -215 0 0
135 0 135 215 0 215 0 0 -135z"/>
</g>
</svg>
